<?xml version="1.0" standalone="no"?>
<!DOCTYPE svg PUBLIC "-//W3C//DTD SVG 1.1//EN" "http://www.w3.org/Graphics/SVG/1.1/DTD/svg11.dtd" >
<!--
2013-9-30: Created.
-->
<svg>
<metadata>
Created by iconfont
</metadata>
<defs>

<font id="iconfont" horiz-adv-x="1024" >
  <font-face
    font-family="iconfont"
    font-weight="500"
    font-stretch="normal"
    units-per-em="1024"
    ascent="896"
    descent="-128"
  />
    <missing-glyph />
    
    <glyph glyph-name="x" unicode="x" horiz-adv-x="1001"
d="M281 543q-27 -1 -53 -1h-83q-18 0 -36.5 -6t-32.5 -18.5t-23 -32t-9 -45.5v-76h912v41q0 16 -0.5 30t-0.5 18q0 13 -5 29t-17 29.5t-31.5 22.5t-49.5 9h-133v-97h-438v97zM955 310v-52q0 -23 0.5 -52t0.5 -58t-10.5 -47.5t-26 -30t-33 -16t-31.5 -4.5q-14 -1 -29.5 -0.5
t-29.5 0.5h-32l-45 128h-439l-44 -128h-29h-34q-20 0 -45 1q-25 0 -41 9.5t-25.5 23t-13.5 29.5t-4 30v167h911zM163 247q-12 0 -21 -8.5t-9 -21.5t9 -21.5t21 -8.5q13 0 22 8.5t9 21.5t-9 21.5t-22 8.5zM316 123q-8 -26 -14 -48q-5 -19 -10.5 -37t-7.5 -25t-3 -15t1 -14.5
t9.5 -10.5t21.5 -4h37h67h81h80h64h36q23 0 34 12t2 38q-5 13 -9.5 30.5t-9.5 34.5q-5 19 -11 39h-368zM336 498v228q0 11 2.5 23t10 21.5t20.5 15.5t34 6h188q31 0 51.5 -14.5t20.5 -52.5v-227h-327z" />
    

    
    <glyph glyph-name="dingwei" unicode="&#58890;" d="M512.3267 748.0532c-185.856 0-336.5468-150.4061-336.5468-335.8894 0-185.4822 336.5468-559.7706 336.5468-559.7706s336.5437 374.2884 336.5437 559.7706C848.8704 597.6471 698.1806 748.0532 512.3267 748.0532zM714.2523 412.1638c0-111.2842-90.4018-201.5324-201.9256-201.5324-111.5269 0-201.9287 90.2482-201.9287 201.5324 0 111.3068 90.4018 201.5334 201.9287 201.5334C623.8505 613.6973 714.2523 523.4716 714.2523 412.1638z"  horiz-adv-x="1024" />

    
    <glyph glyph-name="viplvse" unicode="&#58892;" d="M572.56448 378.91456c-26.986496-11.111424-51.724288-25.92768-74.2144-44.445696-22.491136-18.521088-41.935872-39.687168-58.341376-63.501312-16.402432-23.812096-29.10208-49.875968-38.09792-78.184448-8.99584-28.311552-13.494272-58.077184-13.494272-89.295872 0-27.516928 3.57376-53.840896 10.715136-78.978048 7.143424-25.13408 17.06496-48.815104 29.765632-71.037952l-21.43232 0c-15.342592 0-33.174528 0.766976-53.577728 0.766976-20.307968 0-40.832-0.438272-62.606336-0.438272-29.4144 0-41.89184 0-64.400384 0-20.87424 0-41.463808 0.523264-59.122688 0.523264-17.002496 0-31.904768 0.05632-44.204032 0.05632-12.453888 0-18.808832-0.05632-23.263232-0.05632-7.196672 0-10.185728 52.195328-13.09696 74.153984-2.910208 21.95968-1.72032 50.14016 3.569664 84.533248 2.115584 13.232128 6.483968 24.080384 13.095936 32.543744 6.616064 8.46848 14.685184 15.742976 24.21248 21.827584 9.521152 6.084608 20.10624 10.980352 31.74912 14.685184 11.641856 3.704832 23.547904 7.274496 35.718144 10.71616 12.168192 3.437568 23.944192 7.143424 35.31776 11.112448 11.379712 3.969024 21.827584 8.86272 31.35488 14.685184 11.111424 6.879232 19.712 13.627392 25.796608 20.23936 6.084608 6.61504 10.452992 13.095936 13.095936 19.447808 2.64704 6.347776 3.968 12.96384 3.968 19.843072 0 6.880256-0.263168 14.550016-0.794624 23.018496-1.057792 12.171264-5.291008 21.828608-12.696576 28.971008-7.409664 7.1424-15.61088 14.420992-24.605696 21.827584-4.232192 3.705856-8.06912 8.863744-11.510784 15.479808-3.438592 6.611968-6.480896 13.360128-9.127936 20.23936-2.64704 7.937024-5.291008 16.13824-7.937024 24.60672-3.704832 1.057792-7.406592 2.911232-11.111424 5.558272-3.175424 2.642944-6.616064 6.347776-10.32192 11.111424-3.700736 4.763648-6.874112 11.64288-9.521152 20.63872-2.64704 8.994816-3.705856 17.196032-3.175424 24.6016 0.52736 7.410688 2.115584 14.026752 4.758528 19.843072 2.120704 5.822464 5.558272 11.379712 10.32192 16.669696 0 20.107264 1.057792 40.2176 3.1744 60.324864 2.115584 16.932864 5.82144 35.187712 11.111424 54.767616 5.29408 19.580928 13.495296 37.044224 24.60672 52.38784 10.584064 14.81728 21.95968 26.8544 34.128896 36.113408 12.174336 9.263104 24.875008 16.5376 38.102016 21.827584 13.227008 5.29408 26.323968 8.864768 39.286784 10.717184 12.96896 1.852416 25.53344 2.779136 37.702656 2.779136 15.347712 0 30.559232-1.72032 45.63968-5.158912 15.08352-3.441664 29.238272-8.06912 42.466304-13.89056 13.231104-5.82144 25.001984-12.43648 35.323904-19.843072 10.315776-7.410688 18.38592-14.81728 24.206336-22.227968 13.760512-16.932864 23.814144-35.582976 30.166016-55.957504 6.347776-20.374528 10.848256-39.81824 13.490176-58.340352 2.648064-21.165056 3.970048-42.597376 3.970048-64.294912 3.703808-2.642944 6.616064-6.083584 8.731648-10.3168 2.115584-3.704832 3.835904-8.46848 5.157888-14.2848 1.32608-5.822464 1.456128-12.964864 0.398336-21.433344-1.057792-11.64288-3.30752-20.770816-6.746112-27.38688-3.441664-6.611968-7.27552-11.769856-11.511808-15.474688-4.7616-4.232192-9.790464-7.1424-15.080448-8.731648-1.057792-3.1744-2.115584-6.61504-3.1744-10.3168l-3.968-11.116544C575.476736 387.119872 574.150656 383.150848 572.56448 378.91456L572.56448 378.91456zM686.068736 353.517312c34.39616 0 66.809856-6.61504 97.23392-19.843072 30.42816-13.231104 56.886272-31.222784 79.374336-53.978112 22.490112-22.754304 40.349696-49.34144 53.57568-79.768576 13.232128-30.42816 19.844096-62.835712 19.844096-97.232896s-6.611968-66.804736-19.844096-97.232896c-13.225984-30.42816-31.085568-57.01632-53.57568-79.7696-22.488064-22.754304-48.946176-40.612864-79.374336-53.576704-30.424064-12.96384-62.83776-19.447808-97.23392-19.447808-34.92352 0-67.600384 6.483968-98.02752 19.447808-30.424064 12.96384-56.884224 30.823424-79.374336 53.576704-22.486016 22.754304-40.3456 49.342464-53.577728 79.7696-13.227008 30.42816-19.843072 62.835712-19.843072 97.232896s6.616064 66.804736 19.843072 97.232896c13.232128 30.42816 31.090688 57.015296 53.577728 79.768576 22.490112 22.755328 48.950272 40.747008 79.374336 53.978112C618.468352 346.901248 651.144192 353.517312 686.068736 353.517312L686.068736 353.517312zM832.116736 151.907072c3.178496 10.580992 1.72032 20.23936-4.364288 28.971008-6.085632 8.731648-14.153728 14.949376-24.208384 18.654208-10.053632 3.700736-20.112384 3.969024-30.163968 0.789504-10.053632-3.1744-17.460224-11.374592-22.223872-24.6016-2.646016-8.99584-5.157888-17.333248-7.54176-25.00608-2.379776-7.66976-4.763648-15.73888-7.1424-24.208384-2.379776-8.46848-5.292032-17.595392-8.731648-27.384832-3.437568-9.787392-7.805952-21.033984-13.095936-33.733632-5.289984-13.755392-12.831744-20.23936-22.622208-19.444736-9.790464 0.794624-17.330176 6.479872-22.624256 17.06496-5.81632 10.584064-11.242496 21.95968-16.270336 34.128896-5.025792 12.174336-9.921536 24.080384-14.68416 35.719168-4.763648 11.641856-8.99584 22.226944-12.701696 31.74912-3.699712 9.527296-6.874112 17.200128-9.522176 23.021568-4.232192 8.464384-11.242496 13.227008-21.031936 14.2848s-19.31776-0.395264-28.575744-4.364288c-9.260032-3.968-16.933888-10.1888-23.018496-18.653184-6.083584-8.469504-7.012352-17.728512-2.778112-27.78112 3.703808-10.585088 7.936-22.491136 12.699648-35.718144 4.759552-13.232128 9.790464-26.723328 15.080448-40.481792s10.317824-27.249664 15.080448-40.481792c4.763648-13.227008 8.99584-24.605696 12.699648-34.128896 7.938048-20.107264 19.976192-35.190784 36.114432-45.24544 16.142336-10.052608 33.076224-15.342592 50.799616-15.874048 17.726464-0.528384 34.660352 3.44064 50.801664 11.906048 16.13824 8.46848 27.912192 21.169152 35.31776 38.102016 5.822464 13.754368 11.776 28.176384 17.859584 43.255808s11.906048 29.764608 17.46432 44.054528c5.554176 14.285824 10.71616 28.044288 15.475712 41.27232C824.972288 131.006208 828.942336 142.3808 832.116736 151.907072L832.116736 151.907072zM832.116736 151.907072"  horiz-adv-x="1024" />

    
    <glyph glyph-name="duihao" unicode="&#58887;" d="M430.85824-86.12992c0 0 120.2176 225.56672 258.53952 420.70016 106.74176 150.60992 239.8208 282.46016 239.8208 282.46016l-27.77088 75.07968c0 0-157.85984-106.65984-285.696-237.568-129.80224-132.83328-229.49888-290.16064-229.49888-290.16064l-196.03456 178.50368-80.15872-82.944L430.85824-86.12992 430.85824-86.12992z"  horiz-adv-x="1024" />

    
    <glyph glyph-name="dingwei1" unicode="&#58888;" d="M808.621163 506.965725c0 132.686998-133.267213 240.257969-297.633724 240.257969-164.365488 0-297.632701-107.570971-297.632701-240.257969 0-132.684952 297.632701-533.937638 297.632701-533.937638S808.621163 374.281797 808.621163 506.965725zM302.64639 479.179892c0 115.068735 93.270267 208.344119 208.341049 208.344119 115.073852 0 208.346165-93.27436 208.346165-208.344119 0-115.069759-93.27129-208.339002-208.346165-208.339002C395.915633 270.84089 302.64639 364.10911 302.64639 479.179892zM749.093395 211.309028c-62.346977 9.94142-54.874795-42.784432-29.760814-59.525722 245.545392-154.397463-190.675714-247.40474-208.346165-238.101863C77.562005-43.534124 251.489266 150.857215 302.64639 151.783307c14.880919 11.164271 36.853349 54.587246-29.761837 59.525722-74.469062-38.189787-119.054513-86.438675-119.054513-148.814304 0-115.065665 159.917176-208.344119 357.156376-208.344119 197.241246 0 357.157399 93.27743 357.157399 208.344119C868.144838 124.02715 821.784974 173.173476 749.093395 211.309028z"  horiz-adv-x="1024" />

    
    <glyph glyph-name="iconfontyoubianfangxiang" unicode="&#58884;" d="M79.295 526.060l1.447 1.447c24.777 24.776 64.948 24.776 89.725 0l387.842-387.842c24.777-24.777 24.777-64.948 0-89.725l-1.447-1.447c-24.776-24.776-64.948-24.776-89.725 0l-387.842 387.842c-24.776 24.777-24.776 64.948 0 89.725zM943.258 527.508l1.447-1.447c24.777-24.776 24.777-64.948 0-89.725l-387.842-387.842c-24.776-24.776-64.948-24.776-89.725 0l-1.447 1.447c-24.777 24.776-24.777 64.948 0 89.725l387.842 387.842c24.776 24.776 64.947 24.776 89.725 0z"  horiz-adv-x="1024" />

    
    <glyph glyph-name="iconrenqun" unicode="&#58896;" d="M357.402597 376.289534C187.613986 376.289534 49.982657 188.007544 49.982657-44.265526c0-7.729614 0.174929-15.457183 0.480799-23.121327l613.880328 0c0.330422 7.663121 0.483868 15.391712 0.483868 23.121327C664.826629 188.007544 527.15029 376.289534 357.402597 376.289534zM360.242382 419.563508c85.714222 0 155.22551 67.874525 155.22551 151.646114C515.467892 654.913694 445.956603 722.812771 360.242382 722.812771c-85.670234 0-155.163109-67.899077-155.163109-151.603149C205.079273 487.438034 274.572148 419.563508 360.242382 419.563508zM737.525514 257.674326c57.180324 0 103.531413 45.325043 103.531413 101.192887 0 55.892396-46.351089 101.192887-103.531413 101.192887-57.222266 0-103.549826-45.300492-103.549826-101.192887C633.975688 302.999369 680.303249 257.674326 737.525514 257.674326zM735.627892 228.857063c-14.847489 0-29.278625-2.292492-43.22794-6.373147 38.969287-75.41182 62.068108-167.237307 62.068108-266.597019 0-7.727568-0.172883-15.455137-0.481822-23.13974l186.470298 0c0.174929 5.107724 0.283365 10.237954 0.283365 15.391712C940.740923 103.148531 848.892931 228.857063 735.627892 228.857063z"  horiz-adv-x="1024" />

    
    <glyph glyph-name="loufang" unicode="&#58893;" d="M558.976 640l0-64 419.008 0L977.984 640 558.976 640zM558.976-96l150.976 0 0 320 120 0 0-320 148.032 0 0 640L558.976 544 558.976-96zM81.024-96l448 0 0 960-448 0L81.024-96zM465.024 136l-128 0 0 128 128 0L465.024 136zM334.976 776l128 0 0-128-128 0L334.976 776zM334.976 520l128 0 0-128-128 0L334.976 520zM142.976 776l128 0 0-128-128 0L142.976 776zM142.976 520l128 0 0-128-128 0L142.976 520zM142.976 264l128 0 0-128-128 0L142.976 264z"  horiz-adv-x="1024" />

    
    <glyph glyph-name="duihao1" unicode="&#58889;" d="M443.062931-123.648902C296.951179 61.534727 125.052111 202.615906 4.733814 246.721427l283.578614 176.413895L425.781336 149.744745c0 0 223.484957 555.553958 575.931055 740.734518-8.511861-132.180462-42.946115-246.823502 17.150612-388.033617C864.238366 467.236749 546.227546 70.304462 443.062931-123.648902L443.062931-123.648902 443.062931-123.648902z"  horiz-adv-x="1024" />

    
    <glyph glyph-name="jiahao" unicode="&#59023;" d="M972.8 332.8 563.2 332.8l0-422.4c0-21.1968-17.2032-38.4-38.4-38.4l-25.6 0c-21.2224 0-38.4 17.2032-38.4 38.4L460.8 332.8 51.2 332.8c-28.288 0-51.2 22.912-51.2 51.2 0 28.288 22.912 51.2 51.2 51.2l409.6 0L460.8 857.6C460.8 878.7968 478.0032 896 499.2 896l25.6 0C545.9968 896 563.2 878.7968 563.2 857.6L563.2 435.2l409.6 0c28.288 0 51.2-22.912 51.2-51.2C1024 355.712 1001.0624 332.8 972.8 332.8z"  horiz-adv-x="1024" />

    
    <glyph glyph-name="naozhong" unicode="&#58885;" d="M820.55296 20.992c11.31136-11.2832 22.27328-22.21312 33.21472-33.15456 18.6048-18.5984 37.39136-37.02144 55.75296-55.86048 18.84544-19.32928 10.47168-50.4832-15.264-57.02272-13.1328-3.33312-24.43904 0.61312-34.0096 10.22336-29.83552 29.96224-59.79136 59.79136-89.62048 89.76128-1.78816 1.79456-2.84928 4.31488-3.50848 5.32864-170.93248-96.95872-339.50464-96.94464-509.00608-0.76544-1.1904-1.13536-3.0784-2.84928-4.88704-4.65792-30.23872-30.21056-60.32256-60.59136-90.74816-90.61504-18.80576-18.54976-49.33376-11.17056-56.74112 13.5424-4.07936 13.60256-0.34944 25.40032 9.6576 35.38816 27.4368 27.37536 54.79808 54.81728 82.26048 82.16448 1.81504 1.80864 4.18048 3.0592 6.38464 4.64512C90.21824 122.36672 31.98592 248.10112 36.77824 399.99104c4.20736 133.16736 57.39264 245.43744 155.34592 335.70048C381.10976 909.84448 678.09152 898.80064 856.61184 711.65824 1041.93408 517.38368 1031.56224 201.6832 820.55296 20.992L820.55296 20.992zM104.02304 383.66592c0.02688-224.5888 182.49984-407.80672 406.2592-407.93344 226.77888-0.1216 409.09056 181.26848 409.4528 407.39584 0.36352 225.36064-182.6816 408.66048-407.8528 408.41088C286.59584 791.29088 103.99744 608.68352 104.02304 383.66592L104.02304 383.66592zM104.02304 383.66592M201.06368 894.21056c5.92128-1.12896 12.14464-1.46432 17.71008-3.54816 14.61888-5.46432 23.42912-21.21856 20.95488-36.0448-2.78912-16.65536-15.73376-28.70016-32.25472-28.99584-30.47424-0.5504-58.38592-8.8256-82.67776-27.40224-35.85536-27.42784-53.66784-64.1792-54.83136-109.1712-0.35584-13.99424-6.94912-24.20224-19.4304-30.21696-12.02304-5.79456-23.82592-4.4032-34.5536 3.39328-9.59104 6.9632-14.15424 16.81024-13.8048 28.59776C4.288 762.71232 34.79552 819.33824 94.2912 859.81184 126.3104 881.59488 162.23488 892.02048 201.06368 894.21056L201.06368 894.21056zM201.06368 894.21056M1021.74208 692.91904c0.41088-5.37728-0.2688-14.58432-6.048-22.7776-8.57088-12.14592-23.78112-17.51552-37.90848-13.22112-14.14016 4.30208-23.81184 16.96512-24.02688 32.90624-0.33664 25.49376-6.56768 49.31968-20.27904 70.7392-26.77632 41.85344-65.42976 63.23968-115.01056 64.89344-24.52608 0.81408-40.49536 22.81856-32.67328 45.19424 4.86016 13.89952 17.62432 23.01312 33.10336 22.58944 76.02176-2.07744 134.28224-35.58272 174.33344-100.09856C1011.4048 763.87456 1020.19072 731.48544 1021.74208 692.91904L1021.74208 692.91904zM1021.74208 692.91904M478.08256 485.83424c0.00512 33.82016-0.1088 67.648 0.06016 101.46816 0.08064 15.29856 9.03296 27.63136 22.73152 32.32128 13.48992 4.62464 28.47616 0.32384 37.48352-10.82112 5.73312-7.07712 7.71584-15.30368 7.70176-24.29696-0.06656-59.8912 0.02688-119.78368-0.1408-179.67744-0.01152-5.0816 1.35808-8.66304 5.00864-12.29184 39.99744-39.72864 79.86048-79.58528 119.64288-119.52256 15.22944-15.29856 14.86592-37.96736-0.48512-51.10784-13.30688-11.392-32.48896-11.07712-45.53472 1.19552-9.40288 8.84608-18.35008 18.18112-27.48288 27.3152-35.05024 35.04384-69.93408 70.24384-105.24032 105.0176-9.72032 9.57184-14.12096 20.224-13.90592 33.86112C478.4192 421.472 478.08256 453.65248 478.08256 485.83424L478.08256 485.83424zM478.08256 485.83424"  horiz-adv-x="1024" />

    
    <glyph glyph-name="yuyue" unicode="&#58894;" d="M450.117604 26.411789 108.401896 26.411789c-24.498974 0-44.399209 20.217461-44.399209 45.101197L64.002686 481.522104l832.02878 0L896.031467 696.481897c0 60.749596-48.602951 110.12719-108.400872 110.12719l-83.60514 0L704.025455 871.620753l-64.001663 0 0-65.011666L256.009721 806.609087 256.009721 871.620753l-64.002686 0 0-65.011666-83.60514 0c-59.798944 0-108.401896-49.377594-108.401896-110.12719l0-624.968911c0-60.744479 48.602951-110.11798 108.401896-110.11798l341.715709 0c17.701151 0 31.998785 14.521738 31.998785 32.505321S467.818755 26.411789 450.117604 26.411789zM160.00825 384l224.004797 0 0-65.020876L160.00825 318.979124 160.00825 384zM160.00825 188.955792l224.004797 0 0-65.020876L160.00825 123.934916 160.00825 188.955792zM800.031019 286.477896l-64.002686 0 0-97.522104 0-65.020876 64.002686 0 96.000448 0 0 65.020876-96.000448 0L800.031019 286.477896zM949.037704 340.318128c-48.4075 49.167816-112.604614 76.188216-181.00547 76.188216-68.405973 0-132.705418-27.019377-181.010587-76.188216-48.402383-49.163723-75.003228-114.38926-75.003228-183.872774s26.600845-134.807289 75.003228-183.877891c48.402383-49.163723 112.604614-76.188216 181.010587-76.188216 68.400856 0 132.700301 27.024493 181.00547 76.188216 48.39829 49.172933 74.998111 114.394377 74.998111 183.877891S997.434971 291.251619 949.037704 340.318128zM768.032234-38.603971c-105.909122 0-192.011128 87.467097-192.011128 195.049325s86.102007 195.044208 192.011128 195.044208c105.899912 0 192.001919-87.461981 192.001919-195.044208S873.932146-38.603971 768.032234-38.603971z"  horiz-adv-x="1025" />

    
    <glyph glyph-name="iconfonthuiyixl" unicode="&#58880;" d="M472.703321 638.213787c71.162713 0 128.893106 57.730394 128.893106 128.893106 0 71.162713-57.730394 128.893106-128.893106 128.893106-71.162713 0-128.893106-57.730394-128.893106-128.893106C343.810215 695.944181 401.397711 638.213787 472.703321 638.213787L472.703321 638.213787zM859.38264 638.213787c71.162713 0 128.893106 57.730394 128.893106 128.893106 0 71.162713-57.730394 128.893106-128.893106 128.893106-71.162713 0-128.893106-57.730394-128.893106-128.893106C730.489534 695.944181 788.219927 638.213787 859.38264 638.213787L859.38264 638.213787zM945.406642 602.489534 773.501535 602.489534c-47.441809 0-86.024002-38.439297-86.024002-85.881105l0-43.012001-43.012001 0 0 43.012001c0 47.441809-38.439297 85.881105-85.881105 85.881105L386.679319 602.489534c-47.441809 0-85.881105-38.439297-85.881105-85.881105l0-43.012001c-166.189227 0-300.798214-134.608987-300.798214-300.798214 0-166.189227 134.608987-300.798214 300.798214-300.798214l343.810215 0c0 0 0 62.303098 0 85.881105s-20.148479 85.881105-85.881105 85.881105c-79.164946 0-86.024002 0-86.024002 0l-85.881105 0c-47.441809 0-85.881105-38.439297-85.881105-85.881105-118.604521 0-214.917109 96.16969-214.917109 214.917109C85.881105 291.402735 182.193692 387.572425 300.798214 387.572425l730.489534 0 0 128.893106C1031.287748 563.90734 992.848451 602.489534 945.406642 602.489534L945.406642 602.489534zM601.596428 198.376779c0 71.162713-57.730394 128.893106-128.893106 128.893106-71.162713 0-128.893106-57.730394-128.893106-128.893106 0-71.162713 57.730394-128.893106 128.893106-128.893106C543.866034 69.483673 601.596428 127.214066 601.596428 198.376779L601.596428 198.376779zM988.275747 198.376779c0 71.162713-57.730394 128.893106-128.893106 128.893106-71.162713 0-128.893106-57.730394-128.893106-128.893106 0-71.162713 57.730394-128.893106 128.893106-128.893106C930.545353 69.483673 988.275747 127.214066 988.275747 198.376779L988.275747 198.376779zM945.406642 43.76221l-85.881105 0-85.881105 0c-47.441809 0-86.024002-38.439297-86.024002-85.881105l0-85.881105 343.810215 0 0 85.881105C1031.287748 5.322914 992.848451 43.76221 945.406642 43.76221L945.406642 43.76221z"  horiz-adv-x="1032" />

    
    <glyph glyph-name="iconfonthuiyil" unicode="&#58881;" d="M472.703321 638.213787c71.162713 0 128.893106 57.730394 128.893106 128.893106 0 71.162713-57.730394 128.893106-128.893106 128.893106-71.162713 0-128.893106-57.730394-128.893106-128.893106C343.810215 695.944181 401.397711 638.213787 472.703321 638.213787L472.703321 638.213787zM859.38264 638.213787c71.162713 0 128.893106 57.730394 128.893106 128.893106 0 71.162713-57.730394 128.893106-128.893106 128.893106-71.162713 0-128.893106-57.730394-128.893106-128.893106C730.489534 695.944181 788.219927 638.213787 859.38264 638.213787L859.38264 638.213787zM945.406642 602.489534 773.501535 602.489534c-47.441809 0-86.024002-38.439297-86.024002-85.881105l0-43.012001-43.012001 0 0 43.012001c0 47.441809-38.439297 85.881105-85.881105 85.881105L386.679319 602.489534c-47.441809 0-85.881105-38.439297-85.881105-85.881105l0-43.012001c-166.189227 0-300.798214-134.608987-300.798214-300.798214 0-166.189227 134.608987-300.798214 300.798214-300.798214l343.810215 0c0 0 0 62.303098 0 85.881105s-20.148479 85.881105-85.881105 85.881105c-79.164946 0-86.024002 0-86.024002 0l-85.881105 0c-47.441809 0-85.881105-38.439297-85.881105-85.881105-118.604521 0-214.917109 96.16969-214.917109 214.917109C85.881105 291.402735 182.193692 387.572425 300.798214 387.572425l730.489534 0 0 128.893106C1031.287748 563.90734 992.848451 602.489534 945.406642 602.489534L945.406642 602.489534zM601.596428 198.376779c0 71.162713-57.730394 128.893106-128.893106 128.893106-71.162713 0-128.893106-57.730394-128.893106-128.893106 0-71.162713 57.730394-128.893106 128.893106-128.893106C543.866034 69.483673 601.596428 127.214066 601.596428 198.376779L601.596428 198.376779zM687.477533-42.118895l343.810215 0 0-85.881105-343.810215 0 0 85.881105Z"  horiz-adv-x="1032" />

    
    <glyph glyph-name="iconfonthuiyim" unicode="&#58882;" d="M472.637366 638.249756c71.152784 0 128.875122 57.722338 128.875122 128.875122 0 71.152784-57.722338 128.875122-128.875122 128.875122-71.152784 0-128.875122-57.722338-128.875122-128.875122C343.762244 695.972094 401.341705 638.249756 472.637366 638.249756L472.637366 638.249756zM644.518488 473.512488l0 43.006c0 47.435189-38.433933 85.869122-85.869122 85.869122L386.625366 602.38761c-47.435189 0-85.869122-38.433933-85.869122-85.869122l0-43.006c-166.166039 0-300.756244-134.590205-300.756244-300.756244 0-166.166039 134.590205-300.756244 300.756244-300.756244l343.762244 0c0 0 0 62.294405 0 85.869122s-20.145668 85.869122-85.869122 85.869122c-79.1539 0-86.011999 0-86.011999 0l-85.869122 0c-47.435189 0-85.869122-38.433933-85.869122-85.869122-118.587973 0-214.887122 96.156272-214.887122 214.887122C85.869122 291.487094 182.168271 387.643365 300.756244 387.643365l730.38761 0 0 86.583508L644.518488 473.512488zM601.512488 198.474117c0 71.152784-57.722338 128.875122-128.875122 128.875122-71.152784 0-128.875122-57.722338-128.875122-128.875122 0-71.152784 57.722338-128.875122 128.875122-128.875122C543.790149 69.598995 601.512488 127.321334 601.512488 198.474117L601.512488 198.474117zM687.38161-41.988001l343.762244 0 0-85.869122-343.762244 0 0 85.869122Z"  horiz-adv-x="1032" />

    
    <glyph glyph-name="iconfonthuiyis" unicode="&#58883;" d="M472.637366 638.249756c71.152784 0 128.875122 57.722338 128.875122 128.875122 0 71.152784-57.722338 128.875122-128.875122 128.875122-71.152784 0-128.875122-57.722338-128.875122-128.875122C343.762244 695.972094 401.341705 638.249756 472.637366 638.249756L472.637366 638.249756zM644.518488 473.512488l0 43.006c0 47.435189-38.433933 85.869122-85.869122 85.869122L386.625366 602.38761c-47.435189 0-85.869122-38.433933-85.869122-85.869122l0-43.006c-166.166039 0-300.756244-134.590205-300.756244-300.756244 0-166.166039 134.590205-300.756244 300.756244-300.756244l343.762244 0 0 85.869122c0 0-224.317009 0-343.762244 0-118.587973 0-214.887122 96.156272-214.887122 214.887122C85.869122 291.487094 182.168271 387.643365 300.756244 387.643365l730.38761 0 0 86.583508L644.518488 473.512488zM687.38161-41.988001l343.762244 0 0-85.869122-343.762244 0 0 85.869122Z"  horiz-adv-x="1032" />

    
    <glyph glyph-name="chenggong1" unicode="&#58886;" d="M318.690191 462.407904l-65.038814-65.038814 211.01482-211.01482 466.834157 466.834157-65.038814 65.038814L463.943543 316.431898 318.690191 462.407904zM885.973183 374.244178c0-205.956246-168.378264-374.33451-374.33451-374.33451s-374.33451 168.378264-374.33451 374.33451 168.378264 374.33451 374.33451 374.33451c37.577982 0 70.097389-5.058574 103.33945-15.175723L690.134086 809.281581c-54.921665 17.343684-117.792519 32.519407-178.495413 32.519407C252.928723 841.800988 44.804517 630.786168 44.804517 374.244178s208.124206-469.724771 466.834157-469.724771 466.834157 211.01482 466.834157 466.834157l-93.222301 0L885.250529 374.244178z"  horiz-adv-x="1024" />

    
    <glyph glyph-name="cuowu" unicode="&#58891;" d="M728.338028 528.225352l-72.112676 72.112676-144.225352-144.225352-144.225352 144.225352-72.112676-72.112676 144.225352-144.225352-144.225352-144.225352 72.112676-72.112676 144.225352 144.225352 144.225352-144.225352 72.112676 72.112676-144.225352 144.225352L728.338028 528.225352zM872.56338 744.56338c-198.309859 198.309859-519.211268 198.309859-717.521127 0s-198.309859-519.211268 0-717.521127c198.309859-198.309859 519.211268-198.309859 717.521127 0C1067.267606 221.746479 1067.267606 546.253521 872.56338 744.56338zM223.549296 95.549296c-158.647887 158.647887-158.647887 418.253521 0 573.295775 158.647887 158.647887 418.253521 158.647887 573.295775 0 158.647887-158.647887 158.647887-418.253521 0-573.295775C641.802817-59.492958 382.197183-59.492958 223.549296 95.549296z"  horiz-adv-x="1024" />

    
    <glyph glyph-name="daikuannianxian" unicode="&#58897;" d="M512-126.837684c-281.280363 0-511.418842 228.976163-511.418842 511.418842 0 281.280363 228.976163 511.418842 511.418842 511.418842s511.418842-228.976163 511.418842-511.418842C1023.418842 102.138479 794.442679-126.837684 512-126.837684zM512 840.208854c-252.222474 0-456.790011-204.567537-456.790011-456.790011s204.567537-456.790011 456.790011-456.790011c252.222474 0 456.790011 204.567537 456.790011 456.790011S764.222474 840.208854 512 840.208854zM515.486947 507.786606c-18.597049 0-33.707151 15.110102-33.707151 33.707151l0 198.755959c0 18.597049 15.110102 33.707151 33.707151 33.707151 18.597049 0 33.707151-15.110102 33.707151-33.707151l0-198.755959C549.194098 522.896708 534.083995 507.786606 515.486947 507.786606zM515.486947 362.497162c-18.597049 0-33.707151 15.110102-33.707151 33.707151l0 198.755959c0 18.597049 15.110102 33.707151 33.707151 33.707151 18.597049 0 33.707151-15.110102 33.707151-33.707151l0-198.755959C549.194098 377.607264 534.083995 362.497162 515.486947 362.497162zM761.897843 240.45403c-9.298524-16.272418-33.707151-19.759364-52.3042-6.973893l-205.729852 125.530079c-19.759364 11.623156-26.733258 33.707151-17.434733 49.979569s33.707151 19.759364 52.3042 6.973893l205.729852-125.530079C763.060159 278.810443 771.196368 256.726447 761.897843 240.45403z"  horiz-adv-x="1024" />

    
    <glyph glyph-name="user-address" unicode="&#58895;" d="M504 864c-190.4 0-312-153.6-312-344s265.6-464 312-464 312 273.6 312 464-121.6 344-312 344zM504 416c-75.2 0-136 60.8-136 136s60.8 136 136 136 136-60.8 136-136-60.8-136-136-136zM264 168c-113.6-24-184-62.4-184-120 0-89.6 192-144 432-144s432 54.4 432 144c0 59.2-75.2 99.2-196.8 123.2-17.6 3.2-33.6-8-36.8-25.6-3.2-17.6 8-33.6 25.6-36.8 91.2-17.6 145.6-46.4 145.6-60.8 0-3.2-4.8-8-17.6-17.6-17.6-11.2-43.2-22.4-76.8-32-72-20.8-169.6-32-273.6-32s-203.2 11.2-273.6 32c-33.6 9.6-59.2 20.8-76.8 32-14.4 9.6-19.2 14.4-19.2 17.6 0 12.8 49.6 40 132.8 57.6 17.6 3.2 28.8 20.8 24 38.4-1.6 17.6-19.2 28.8-36.8 24z"  horiz-adv-x="1024" />

    


  </font>
</defs>
</svg>
