<?xml version="1.0" standalone="no"?>
<!DOCTYPE svg PUBLIC "-//W3C//DTD SVG 1.1//EN" "http://www.w3.org/Graphics/SVG/1.1/DTD/svg11.dtd" >
<svg xmlns="http://www.w3.org/2000/svg">
<metadata>
Created by FontForge 20120731 at Thu Aug  4 15:07:59 2016
 By admin
</metadata>
<defs>
<font id="iconfont" horiz-adv-x="1024" >
  <font-face 
    font-family="iconfont"
    font-weight="500"
    font-stretch="normal"
    units-per-em="1024"
    panose-1="2 0 6 3 0 0 0 0 0 0"
    ascent="896"
    descent="-128"
    x-height="792"
    bbox="0 -196 1383.69 896"
    underline-thickness="50"
    underline-position="-100"
    unicode-range="U+0078-E635"
  />
<missing-glyph horiz-adv-x="374" 
d="M34 0v682h272v-682h-272zM68 34h204v614h-204v-614z" />
    <glyph glyph-name=".notdef" horiz-adv-x="374" 
d="M34 0v682h272v-682h-272zM68 34h204v614h-204v-614z" />
    <glyph glyph-name=".null" horiz-adv-x="0" 
 />
    <glyph glyph-name="nonmarkingreturn" horiz-adv-x="341" 
 />
    <glyph glyph-name="x" unicode="x" horiz-adv-x="1001" 
d="M281 543q-27 -1 -53 -1h-83q-18 0 -36.5 -6t-32.5 -18.5t-23 -32t-9 -45.5v-76h912v41q0 16 -0.5 30t-0.5 18q0 13 -5 29t-17 29.5t-31.5 22.5t-49.5 9h-133v-97h-438v97zM955 310v-52q0 -23 0.5 -52t0.5 -58t-10.5 -47.5t-26 -30t-33 -16t-31.5 -4.5q-14 -1 -29.5 -0.5
t-29.5 0.5h-32l-45 128h-439l-44 -128h-29h-34q-20 0 -45 1q-25 0 -41 9.5t-25.5 23t-13.5 29.5t-4 30v167h911zM163 247q-12 0 -21 -8.5t-9 -21.5t9 -21.5t21 -8.5q13 0 22 8.5t9 21.5t-9 21.5t-22 8.5zM316 123q-8 -26 -14 -48q-5 -19 -10.5 -37t-7.5 -25t-3 -15t1 -14.5
t9.5 -10.5t21.5 -4h37h67h81h80h64h36q23 0 34 12t2 38q-5 13 -9.5 30.5t-9.5 34.5q-5 19 -11 39h-368zM336 498v228q0 11 2.5 23t10 21.5t20.5 15.5t34 6h188q31 0 51.5 -14.5t20.5 -52.5v-227h-327z" />
    <glyph glyph-name="uniE600" unicode="&#xe600;" 
d="M800 -64h-576q-40 0 -68 28t-28 68v640q0 40 28 68t68 28h448q13 0 22.5 -9.5t9.5 -22.5t-9.5 -22.5t-22.5 -9.5h-448q-13 0 -22.5 -9.5t-9.5 -22.5v-640q0 -13 9.5 -22.5t22.5 -9.5h576q13 0 22.5 9.5t9.5 22.5v512q0 13 9.5 22.5t22.5 9.5t22.5 -9.5t9.5 -22.5v-512
q0 -40 -28 -68t-68 -28zM612 448q-13 0 -22.5 9.5t-9.5 22.5t9 23l318 318q10 9 23 9t22.5 -9.5t9.5 -22.5t-9 -23l-318 -318q-10 -9 -23 -9zM480 448h-192q-13 0 -22.5 9.5t-9.5 22.5t9.5 22.5t22.5 9.5h192q13 0 22.5 -9.5t9.5 -22.5t-9.5 -22.5t-22.5 -9.5zM672 256h-384
q-13 0 -22.5 9.5t-9.5 22.5t9.5 22.5t22.5 9.5h384q13 0 22.5 -9.5t9.5 -22.5t-9.5 -22.5t-22.5 -9.5z" />
    <glyph glyph-name="uniE601" unicode="&#xe601;" 
d="M957 491.5q-6 18.5 -25 21.5l-271 42l-120 259q-9 18 -29 18q-21 0 -29 -18l-122 -258l-271 -41q-19 -3 -25.5 -21.5t7.5 -32.5l196 -202l-47 -285q-3 -20 13.5 -31.5t33.5 -1.5l242 133l242 -134q7 -4 15 -4h1q13 0 22.5 9.5t9.5 22.5q0 6 -2 11l-45 279l197 201
q13 14 7 32.5z" />
    <glyph glyph-name="uniE602" unicode="&#xe602;" 
d="M767 -64q-8 0 -15 4l-242 134l-242 -133q-17 -10 -33.5 1.5t-13.5 31.5l47 285l-196 202q-14 14 -8 32.5t25 21.5l156 26q13 3 23.5 -5t13 -21t-5.5 -23.5t-21 -13.5l-95 -16l166 -170q11 -12 8 -28l-39 -235l200 110q15 8 31 -1l199 -110l-38 236q-3 16 9 27l164 169
l-225 34q-17 3 -24 18l-100 213l-100 -212q-5 -12 -17.5 -16.5t-24.5 1t-16.5 18t0.5 24.5l130 274q8 18 29 18q20 0 29 -18l120 -259l271 -42q19 -3 25 -21.5t-7 -32.5l-197 -201l46 -285q3 -20 -14 -31q-8 -6 -18 -6z" />
    <glyph glyph-name="uniE603" unicode="&#xe603;" horiz-adv-x="1028" 
d="M322 247q-1 -2 -2 -3l-51 -189q-5 -18 8 -32q9 -9 23 -9q4 0 8 1l188 51h1q3 0 5 2l503 503q23 23 23 57q0 40 -29 69l-48 47q-29 30 -69 30q-34 0 -57 -23l-502 -503h-1v-1zM956 620l-50 -50l-81 82l49 49q6 6 15.5 5.5t16.5 -7.5l47 -47q8 -8 8 -18q0 -9 -5 -14z
M411 239l363 362l81 -82l-362 -362l-82 82v0zM345 92l27 96l69 -70l-96 -26v0zM988 421q-15 0 -25 -10t-10 -25v-468q0 -18 -13 -31.5t-32 -13.5h-792q-18 0 -31 13.5t-13 31.5v764q0 19 13 32t31 13h510q15 0 25 10t10 24.5t-10 24.5t-25 10h-515q-45 0 -77 -31.5
t-32 -76.5v-775q0 -45 32 -77t77 -32h803q45 0 76.5 32t31.5 77v473q0 15 -10 25t-24 10z" />
    <glyph glyph-name="uniE604" unicode="&#xe604;" 
d="M225 713q-9 8 -21.5 8t-21.5 -8.5t-9 -21.5t9 -22l43 -43q9 -9 21.5 -9t21.5 9t9 22t-9 21l-43 44v0zM803 713l-43 -44q-9 -8 -9 -21t9 -22t21.5 -9t21.5 9l43 43q9 9 9 22t-9 21.5t-21.5 8.5t-21.5 -8v0zM149 472h-61q-13 0 -22 -9t-9 -21.5t9 -21.5t22 -9h61q12 0 21 9
t9 21.5t-9 21.5t-21 9v0zM940 472h-61q-12 0 -21 -9t-9 -21.5t9 -21.5t21 -9h61q13 0 22 9t9 21.5t-9 21.5t-22 9v0zM483 822v-61q0 -13 9 -22t22 -9t21.5 9t8.5 22v61q0 12 -8.5 21t-21.5 9t-22 -9t-9 -21v0zM301 396q0 88 62.5 150.5t150.5 62.5t150.5 -62.5t62.5 -151
t-62.5 -150.5t-150.5 -62t-150.5 62t-62.5 151v0zM240 396q0 -114 80.5 -194t194 -80t193.5 80t80 193.5t-80 194t-193.5 80.5t-194 -80.5t-80.5 -193.5v0zM453 -31q0 -12 9 -21t21 -9h61q13 0 22 9t9 21.5t-9 21.5t-22 9h-61q-12 0 -21 -9t-9 -22v0zM392 61q0 -13 9 -21.5
t22 -8.5h182q13 0 22 8.5t9 21.5t-9 21.5t-22 8.5h-182q-13 0 -22 -8.5t-9 -21.5v0zM392 61z" />
    <glyph glyph-name="uniE605" unicode="&#xe605;" 
d="M292 640h-72v73q0 15 -11 26t-26 11t-26 -11t-11 -26v-73h-72q-15 0 -26 -10.5t-11 -26t11 -26t26 -10.5h72v-73q0 -15 11 -26t26 -11t26 11t11 26v73h72q16 0 26.5 10.5t10.5 26t-10.5 26t-26.5 10.5v0zM292 640zM489 791h-45v45q0 10 -7 16.5t-16.5 6.5t-16 -6.5
t-6.5 -16.5v-45h-46q-9 0 -15.5 -7t-6.5 -16.5t6.5 -16t15.5 -6.5h46v-45q0 -10 6.5 -16.5t16 -6.5t16.5 6.5t7 16.5v45h45q9 0 16 6.5t7 16t-7 16.5t-16 7v0zM489 791zM315 855h-27v27q0 6 -4 10t-9.5 4t-9.5 -4t-4 -10v-27h-28q-5 0 -9 -4t-4 -9.5t4 -10t9 -4.5h28v-27
q0 -5 4 -9.5t9.5 -4.5t9.5 4.5t4 9.5v27h27q6 0 10 4.5t4 10t-4 9.5t-10 4v0zM315 855zM426 476q88 26 180 26t180 -26q11 17 18 36q3 7 6.5 20.5t3.5 15.5q12 43 -21 71q-43 36 -98 13q-5 -2 -7 1q-34 32 -81.5 32t-82.5 -31q-2 -3 -6 -2q-27 13 -58 7q-30 -7 -48.5 -30
t-14.5 -54q5 -44 29 -79v0zM426 476zM697 259q-33 31 -92 31q-56 0 -95.5 -32t-48.5 -84h269q0 54 -33 85zM974 175q-44 163 -186 246q-10 6 -26 14q-76 19 -156 19q-79 0 -156 -19q-110 -52 -162.5 -132.5t-61.5 -200.5q-4 -65 10 -121q12 -47 50 -78t87 -31h234h233
q74 1 117 64q18 27 25 69q14 88 -8 170zM811 120h-351q2 -67 45 -103t117 -36q84 0 155 44v-59q-65 -38 -173 -38q-106 0 -166 54t-60 152q0 93 65.5 151t163.5 58t151 -50t53 -140v-33z" />
    <glyph glyph-name="uniE606" unicode="&#xe606;" horiz-adv-x="1557" 
d="M1126 189h17v19zM1080 -127q27 2 45 21.5t18 46.5v44h-63v-112zM1094 121l-14 -29v-40h63v69h-49zM1143 480v30v40l-351 247q-5 5 -12 5h-1q-1 1 -3.5 1t-3.5 -1h-1q-7 0 -13 -5l-350 -247v-40v-30q0 -1 -0.5 -2t0.5 -2v-535q0 -28 20 -48.5t49 -20.5h507v112h-150v68
h150v40l-14 29h-136v68h104l-141 162h108l127 -152l111 134v143q1 1 0.5 2t-0.5 2zM1080 -128v1v-1zM1143 189h88v-68h-88v68zM1143 52h88v-67h-88v67zM1158 351l-15 -18v-125l124 143h-109zM1366 476l-565 412q-8 6 -19 7q-1 0 -1 1h-6h-5q-1 0 -2 -1q-11 -1 -19 -7
l-564 -412q-15 -11 -17.5 -28.5t7.5 -32.5l34 -46q11 -15 29 -17.5t32 7.5l505 369l506 -369q15 -10 32.5 -7.5t28.5 17.5l34 46q10 15 7 32.5t-17 28.5z" />
    <glyph glyph-name="uniE607" unicode="&#xe607;" horiz-adv-x="1317" 
d="M1117 802l-83 71l-17 -9q-50 -24 -102 -34t-89 -8.5t-73.5 11t-53 16.5t-29.5 14l-15 9l-14 -9q-13 -7 -29.5 -14t-53 -16t-73.5 -11t-89 8t-102 34l-17 9l-83 -71l10 -21q54 -108 54 -180q0 -18 -12 -74q-25 -123 -25 -196q0 -205 165 -261q196 -67 245 -138l24 -35
l25 35q50 71 245 138q165 56 165 261q0 68 -25 196v1q-12 57 -12 73q0 74 55 180zM450 731q30 -58 48 -127h-74q-14 63 -46 127h72zM347 505v53h130v-277q28 10 67 36v-58q-49 -44 -143 -79v325h-54zM947 179h-436v49h64v333h74v-333h72v424h-180v54h395v-54h-133v-158h115
v-53h-115v-214h144v-48z" />
    <glyph glyph-name="uniE608" unicode="&#xe608;" 
d="M446 785q-24 -20 -49 -48q-23 -26 -50 -63t-55 -91q-28 -53 -42 -102q-15 -49 -20 -88q-7 -44 -7 -84q-11 9 -23 15t-25 11q-14 5 -30 8q-31 4 -57 -2t-43 -16q-15 -11 -25 -12.5t-10 14.5q0 38 11 75.5t26.5 71t31.5 59.5q16 27 26 39q49 68 108 109q59 42 111 65
q60 27 122 39v0zM577 785q61 -11 122 -38q51 -23 111 -65t109 -109q10 -13 25 -39q15 -25 31 -59q15 -33 27 -71t12 -76q0 -20 -11 -18q-10 2 -24 15q-13 10 -36 17q-24 6 -59 3q-16 -2 -31 -8.5t-27 -11.5q-12 -7 -25 -15q-1 40 -8 84q-7 40 -20 88q-14 49 -43 102t-55 90
q-27 38 -49 63q-25 28 -49 48v0zM511 896q21 0 33 -29q6 -17 9 -23q3 -8 11 -27q5 -15 13 -32q-10 6 -26 14q-13 7 -22 11q-11 5 -18.5 5t-18.5 -4.5t-21 -10.5q-11 -6 -25 -15q6 16 12 33q6 14 10 28q3 7 9 23q6 15 16 21q9 6 18 6v0zM486 306q8 12 19 13q10 2 19 0
q10 -4 20 -10v-326q0 -49 -20.5 -80t-78.5 -31q-30 0 -49 9q-19 10 -31 23q-11 14 -15.5 30t-4.5 29q0 19 11 27t17 9q9 0 20 -7.5t12 -21.5q1 -19 9.5 -32.5t30.5 -13.5q27 0 33.5 18.5t6.5 50.5v313h1zM511 785h6q4 -1 14 -9q9 -8 26 -27q15 -17 45 -55q28 -36 49 -72
q20 -35 34 -68q15 -33 23 -59q9 -27 14 -44q0 -1 3 -12.5t5 -18.5q6 -21 10 -41q5 -22 7 -38q2 -17 -2 -22q-12 -16 -25 -8.5t-38 22.5q-13 7 -34 14q-19 6 -44 12q-23 5 -47 7q-23 3 -44 3q-41 1 -85 -9q-44 -9 -73 -22q-28 -12 -37 -22q-10 -9 -22 -6q-14 4 -13.5 34.5
t20.5 104.5q14 49 28 86q15 36 31 64q15 28 30 50q14 22 28 41q13 19 27.5 36t28.5 31q12 12 22 21q10 7 13 7v0zM511 785zM869 56h47v-37h-68l-13 -29h81v-38h-81v-80h-56v80h-82v38h82l-14 29h-68v37h48l-57 104h73l55 -110l54 110h55z" />
    <glyph glyph-name="uniE609" unicode="&#xe609;" 
d="M512 -32q-13 0 -23 9l-96 96q-9 10 -9 23t9.5 22.5t22.5 9.5t23 -9l73 -74l73 74q10 9 23 9h224q13 0 22.5 9.5t9.5 22.5v512q0 13 -9.5 22.5t-22.5 9.5h-640q-13 0 -22.5 -9.5t-9.5 -22.5v-512q0 -13 9.5 -22.5t22.5 -9.5h96q13 0 22.5 -9.5t9.5 -22.5t-9.5 -22.5
t-22.5 -9.5h-96q-40 0 -68 28t-28 68v512q0 40 28 68t68 28h640q40 0 68 -28t28 -68v-512q0 -40 -28 -68t-68 -28h-211l-86 -87q-10 -9 -23 -9zM336 384q-20 0 -34 14t-14 34t14 34t34 14t34 -14t14 -34t-14 -34t-34 -14zM528 384q-20 0 -34 14t-14 34t14 34t34 14t34 -14
t14 -34t-14 -34t-34 -14zM720 384q-20 0 -34 14t-14 34t14 34t34 14t34 -14t14 -34t-14 -34t-34 -14z" />
    <glyph glyph-name="uniE60A" unicode="&#xe60a;" 
d="M564 276l289 288q10 10 10 24.5t-10 25t-24.5 10.5t-24.5 -11l-290 -287l-286 287q-11 11 -25 11t-24.5 -10.5t-10.5 -25t10 -24.5l287 -287l-289 -288q-10 -10 -10 -24.5t10 -25t24.5 -10.5t24.5 11l289 287l289 -290q11 -10 25.5 -10t24.5 10t10 24.5t-10 24.5z
M564 276z" />
    <glyph glyph-name="uniE60B" unicode="&#xe60b;" 
d="M510.5 663q-16.5 0 -28 -12t-11.5 -28v-263q0 -17 11.5 -28.5t28.5 -11.5h279q16 0 27.5 11.5t11.5 28t-11.5 28t-27.5 11.5h-240v224q0 16 -11.5 28t-28 12zM535.5 832q-90.5 0 -173.5 -35.5t-143 -95.5t-95.5 -143t-35.5 -173h-78l119 -144l118 144h-79q0 99 49 184
t134 134.5t184.5 49.5t184.5 -49.5t134.5 -134.5t49.5 -184.5t-49.5 -184.5t-134.5 -134t-184 -49q-92 0 -173 43t-132 119q-9 13 -25.5 16.5t-30 -6t-16.5 -25.5t6 -30q63 -92 161 -144.5t210 -52.5q90 0 173 35.5t143 95.5t95.5 143t35.5 173.5t-35.5 173.5t-95.5 143
t-143 95.5t-173.5 35.5z" />
    <glyph glyph-name="uniE60C" unicode="&#xe60c;" 
d="M887 279l-353 350l-1 1h-1v1q-10 9 -23 9t-22 -10l-350 -353q-10 -9 -10 -22.5t9.5 -22.5t23 -9t22.5 9l328 331l332 -330q10 -9 23 -9t22.5 9.5t9.5 23t-10 22.5z" />
    <glyph glyph-name="uniE610" unicode="&#xe610;" 
d="M383 87q-8 0 -14 6t-6 14.5t6 14.5l273 278l-273 279q-6 6 -6 14.5t6 14.5t14.5 6t14.5 -6l288 -293q5 -6 5 -14.5t-5 -14.5l-288 -293q-6 -6 -15 -6z" />
    <glyph glyph-name="uniE612" unicode="&#xe612;" 
d="M1004 467l-132 22q-12 40 -33 77l78 111q10 14 -2 26l-87 86q-12 13 -26 3l-109 -79q-37 21 -78 33l-23 132q-2 7 -7.5 12t-13.5 5h-122q-7 0 -13 -5t-7 -12l-22 -132q-41 -11 -78 -32l-108 78q-14 10 -27 -2l-86 -87q-12 -12 -3 -26l77 -109q-21 -38 -33 -79l-131 -22
q-7 -1 -12 -7t-5 -13v-123q0 -7 5 -12.5t12 -7.5l131 -23q12 -41 33 -79l-78 -108q-10 -14 2 -26l87 -87q12 -12 26 -2l110 77q37 -21 78 -33l22 -131q1 -8 7 -12.5t13 -4.5h122q8 0 13.5 4.5t7.5 11.5l23 133q41 12 78 32l110 -77q14 -10 26 2l87 87q12 12 2 26l-78 109
q20 37 32 78l132 23q8 2 12.5 7.5t4.5 12.5v123q0 7 -4.5 13t-12.5 7zM980 342l-128 -23q-13 -2 -17 -15q-12 -49 -37 -91q-7 -12 1 -23l76 -105l-62 -63l-107 75q-11 8 -23 1q-42 -26 -91 -38q-13 -3 -15 -16l-23 -129h-88l-21 128q-2 13 -15 16q-49 13 -92 38q-11 7 -22 0
l-106 -75l-62 63l75 104q7 11 0 23q-26 43 -38 92q-3 13 -16 15l-127 23v88l127 21q13 2 16 15q13 49 39 92q6 11 -1 22l-74 106l62 62l105 -75q11 -8 23 -1q42 26 91 38q13 3 16 17l20 127h88l23 -128q2 -13 15 -16q49 -12 91 -38q12 -7 23 0l105 76l63 -62l-76 -107
q-7 -11 0 -22q25 -43 37 -91q4 -13 17 -15l128 -21v-88zM695 385q0 -9 -6 -15t-14.5 -6t-14.5 6t-6 15q0 59 -42 101t-101 42t-101 -42t-42 -101t42 -101t101 -42q51 0 90 32q6 5 14.5 4t14 -7.5t4.5 -15t-8 -13.5q-50 -41 -115 -41q-76 0 -129.5 54t-53.5 130t53.5 129.5
t129.5 53.5t130 -53.5t54 -129.5z" />
    <glyph glyph-name="uniE615" unicode="&#xe615;" 
d="M512 832q-185 0 -316.5 -112.5t-131.5 -271.5q0 -137 100.5 -242.5t256.5 -133.5l65 -91q10 -13 26 -13t26 13l65 91q156 28 256.5 133.5t100.5 242.5q0 159 -131.5 271.5t-316.5 112.5zM288.5 384q-26.5 0 -45.5 19t-19 45t19 45t45.5 19t45 -19t18.5 -45t-18.5 -45
t-45 -19zM512.5 384q-26.5 0 -45.5 19t-19 45t19 45t45.5 19t45 -19t18.5 -45t-18.5 -45t-45 -19zM736.5 384q-26.5 0 -45.5 19t-19 45t19 45t45.5 19t45 -19t18.5 -45t-18.5 -45t-45 -19z" />
    <glyph glyph-name="uniE616" unicode="&#xe616;" 
d="M512 -32q-16 0 -26 13l-65 91q-156 28 -256.5 133.5t-100.5 242.5q0 159 131.5 271.5t316.5 112.5t316.5 -112.5t131.5 -271.5q0 -137 -100.5 -242.5t-256.5 -133.5l-65 -91q-10 -13 -26 -13zM512 768q-159 0 -271.5 -94t-112.5 -226q0 -116 89.5 -205t226.5 -110
q13 -2 21 -13l47 -65l47 65q7 11 21 13q137 21 226.5 110t89.5 205q0 132 -112.5 226t-271.5 94zM288.5 384q-26.5 0 -45.5 19t-19 45t19 45t45.5 19t45 -19t18.5 -45t-18.5 -45t-45 -19zM288 448v-32v32zM736.5 384q-26.5 0 -45.5 19t-19 45t19 45t45.5 19t45 -19t18.5 -45
t-18.5 -45t-45 -19zM736 448v-32v32zM512.5 384q-26.5 0 -45.5 19t-19 45t19 45t45.5 19t45 -19t18.5 -45t-18.5 -45t-45 -19zM512 448v-32v32z" />
    <glyph glyph-name="uniE617" unicode="&#xe617;" 
d="M512 700q79 0 151 -30q70 -30 123.5 -83.5t83.5 -123.5q30 -72 30 -151t-30 -151q-30 -70 -83.5 -123.5t-123.5 -83.5q-72 -30 -151 -30t-151 30q-70 30 -123.5 83.5t-83.5 123.5q-30 72 -30 151t30 151q30 70 83.5 123.5t123.5 83.5q72 30 151 30zM512 760
q-122 0 -225 -60t-163 -163t-60 -225t60 -225t163 -163t225 -60t225 60t163 163t60 225t-60 225t-163 163t-225 60zM727 342h-185v185q0 12 -9 21t-21 9t-21 -9t-9 -21v-185h-185q-12 0 -21 -9t-9 -21t9 -21t21 -9h185v-185q0 -12 9 -21t21 -9t21 9t9 21v185h185q12 0 21 9
t9 21t-9 21t-21 9z" />
    <glyph glyph-name="uniE618" unicode="&#xe618;" 
d="M512 832q-185 0 -316.5 -131.5t-131.5 -316.5t131.5 -316.5t316.5 -131.5t316.5 131.5t131.5 316.5t-131.5 316.5t-316.5 131.5zM566 248q10 -9 10 -22.5t-9.5 -22.5t-23 -9t-22.5 9l-159 160v0q-3 3 -6 8v1l-1 1q-8 20 7 35l160 158q10 10 23 10t22.5 -9.5t9.5 -23
t-10 -22.5l-137 -136z" />
    <glyph glyph-name="uniE619" unicode="&#xe619;" 
d="M957 557.5q-9 18.5 -29 18.5h-832q-20 0 -29 -18.5t5 -34.5l416 -485q9 -11 24 -11t24 11l416 485q14 16 5 34.5z" />
    <glyph glyph-name="uniE61A" unicode="&#xe61a;" 
d="M952 181l-416 485q-9 11 -24 11t-24 -11l-416 -485q-14 -16 -5 -34.5t29 -18.5h832q20 0 29 18.5t-5 34.5z" />
    <glyph glyph-name="uniE61B" unicode="&#xe61b;" 
d="M909 285q-23 23 -69 23h-54v64q0 11 -7.5 19t-18.5 8h-232v61h54q46 0 69 23t23 69v160q0 45 -23 68t-69 23h-159q-46 0 -69 -23t-23 -68v-160q0 -46 23 -69t69 -23h52v-61h-212q-11 0 -19 -8t-8 -19v-64h-52q-46 0 -69 -23t-23 -69v-160q0 -45 23 -68t69 -23h159
q46 0 69 23t23 68v160q0 46 -23 69t-69 23h-54v38h444v-38h-52q-46 0 -69 -23t-23 -69v-160q0 -45 23 -68t69 -23h159q46 0 69 23t23 68v160q0 46 -23 69zM382 56q0 -23 -7.5 -30.5t-31.5 -7.5h-159q-24 0 -31.5 7.5t-7.5 30.5v160q0 24 7.5 31.5t31.5 7.5h159
q24 0 31.5 -7.5t7.5 -31.5v-160zM384 712q0 23 7.5 30.5t31.5 7.5h159q24 0 31.5 -7.5t7.5 -30.5v-160q0 -24 -7.5 -31.5t-31.5 -7.5h-159q-24 0 -31.5 7.5t-7.5 31.5v160zM879 56q0 -23 -7.5 -30.5t-31.5 -7.5h-159q-24 0 -31.5 7.5t-7.5 30.5v160q0 24 7.5 31.5t31.5 7.5
h159q24 0 31.5 -7.5t7.5 -31.5v-160z" />
    <glyph glyph-name="uniE61E" unicode="&#xe61e;" horiz-adv-x="1186" 
d="M992 285q-7 -16 -24 -27t-36 -11h-533l37 -132q4 -1 5 -1h492q13 3 25 3q51 0 86.5 -36t35.5 -86.5t-35.5 -86.5t-86 -36t-86 36t-35.5 86q0 37 20 68h-340q20 -31 20 -68q0 -50 -35.5 -86t-86 -36t-86 36t-35.5 86q0 42 25 75t65 43l-165 703q-2 12 -13.5 20.5
t-24.5 8.5h-142q-10 0 -18 7.5t-8 18.5t8 18.5t18 7.5h142q31 0 56.5 -20.5t32.5 -49.5l16 -73h843q24 0 36 -19q13 -20 3 -44zM958 -76q29 0 50 20.5t21 49.5q0 28 -19.5 48.5t-46.5 22.5q-6 -3 -11 -3h-13q-22 -6 -36.5 -25t-14.5 -43q0 -29 20.5 -49.5t49.5 -20.5z
M345 -6q0 -29 20.5 -49.5t50 -20.5t50 20.5t20.5 49.5q0 24 -14.5 43t-36.5 25h-13q-6 0 -11 3q-28 -2 -47 -22.5t-19 -48.5zM297 701l90 -402h545q10 0 13 7l172 395h-820z" />
    <glyph glyph-name="uniE61F" unicode="&#xe61f;" 
d="M678 640v90q0 28 -16.5 44.5t-45.5 16.5h-208q-29 0 -45.5 -16.5t-16.5 -44.5v-90h-180v-60h60v-512q0 -41 24 -66t66 -25h392q41 0 65.5 24t24.5 67v512h60v60h-180zM407 730h210l-1 -90h-209v90zM738 38h-452v542h452v-542zM467 520h-59l-1 -392h60v392zM617 520h-60
v-392h60v392z" />
    <glyph glyph-name="uniE621" unicode="&#xe621;" 
d="M752 272q-41 0 -75 -21.5t-52 -56.5l-258 156q17 32 17 66q0 22 -8 46l269 146q44 -48 107 -48q60 0 102 42t42 102t-42 102t-102 42t-102 -42t-42 -102q0 -18 6 -40l-272 -147q-42 43 -102 43t-102 -42t-42 -102t42 -102t102 -42q47 0 85 29l283 -172v-1q0 -60 42 -102
t102 -42t102 42t42 102t-42 102t-102 42zM752 784q33 0 56.5 -23.5t23.5 -56.5t-23.5 -56.5t-56.5 -23.5t-56.5 23.5t-23.5 56.5t23.5 56.5t56.5 23.5zM240 336q-33 0 -56.5 23.5t-23.5 56.5t23.5 56.5t56.5 23.5t56.5 -23.5t23.5 -56.5t-23.5 -56.5t-56.5 -23.5zM752 48
q-33 0 -56.5 23.5t-23.5 56.5t23.5 56.5t56.5 23.5t56.5 -23.5t23.5 -56.5t-23.5 -56.5t-56.5 -23.5z" />
    <glyph glyph-name="uniE624" unicode="&#xe624;" horiz-adv-x="1029" 
d="M303 595v10q0 121 -1 131q-1 30 19 50t50 19h285q31 0 49.5 -18.5t18.5 -49.5v-142h9q90 0 134 -1q30 0 48.5 -18t18.5 -49v-497q0 -31 -18.5 -49.5t-48.5 -18.5h-707q-31 0 -49.5 18.5t-18.5 48.5v499q0 30 18.5 48t49.5 18q89 0 134 1q1 -1 9 0zM723 551h-420v-546h420
v546zM766 552v-546l3 -1h103q9 0 14 7q6 9 6 20v492v9q-2 18 -20 19h-106zM259 552h-102q-23 0 -23 -24v-499q0 -24 24 -24h95h3h3v547zM681 595v5v3v134q0 26 -26 26h-285q-14 0 -20 -6t-6 -21v-132q0 -2 0.5 -5t0.5 -4h336z" />
    <glyph glyph-name="uniE625" unicode="&#xe625;" 
d="M302 355l85 -84l94 -94l39 -39q8 -8 8 -18.5t-7.5 -18t-18.5 -7.5t-18 8l-39 38l-94 94l-133 133q-7 8 -7 18.5t7 17.5l266 266q7 7 18 7t18.5 -7.5t7.5 -18t-8 -17.5l-224 -225h486q11 0 19 -7.5t8 -18.5t-8 -19t-19 -8h-480zM256 402l-1 1v-2q0 1 1 1z" />
    <glyph glyph-name="uniE62D" unicode="&#xe62d;" 
d="M512 678q73 0 142 -24.5t116.5 -58t91 -78.5t65 -75t39.5 -59q-18 -29 -39.5 -59t-64.5 -75t-90.5 -78t-117 -57t-142.5 -24q-83 0 -156 24t-120.5 57t-87.5 77.5t-58.5 74.5t-32.5 58q17 29 39 59t65.5 75.5t91.5 79t117 58.5t142 25zM512 729q-69 0 -134.5 -19
t-115 -49t-93.5 -67.5t-74 -73.5t-52.5 -67.5t-32.5 -49t-10 -19.5q3 -7 8.5 -19.5t26.5 -48.5t46.5 -68.5t69 -72.5t93 -68.5t120 -48t148.5 -19.5q70 0 137 19.5t115.5 48t93.5 68t73 72t52 68.5t31 48.5t10 19.5q-4 7 -10.5 19.5t-31 48.5t-52 68.5t-72.5 72.5t-94 69
t-115.5 48.5t-136.5 19.5zM512 500q50 0 83 -33t33 -83t-33 -83t-83 -33t-83 33t-33 83t33 83t83 33zM512 551q-72 0 -119.5 -48t-47.5 -119t47.5 -119t119.5 -48t119.5 48t47.5 119t-47.5 119t-119.5 48z" />
    <glyph glyph-name="uniE635" unicode="&#xe635;" 
d="M939 -30l-21 -21q-11 -11 -28 -11t-29 11l-146 152q-114 -79 -241 -79q-108 0 -200.5 55t-147 149t-54.5 204q0 108 54.5 200.5t148.5 147t204.5 54.5t204.5 -54.5t148.5 -148.5t54.5 -204q0 -143 -89 -256l146 -147q9 -7 8 -24t-13 -28v0zM480 727q-125 0 -214 -87.5
t-89 -209.5t89 -210t214 -88t214 88t89 210q0 79 -42 148t-112 109t-149 40v0zM480 727z" />
  </font>
</defs></svg>
<?xml version="1.0" standalone="no"?>
<!DOCTYPE svg PUBLIC "-//W3C//DTD SVG 1.1//EN" "http://www.w3.org/Graphics/SVG/1.1/DTD/svg11.dtd" >
<svg xmlns="http://www.w3.org/2000/svg">
<metadata>
Created by FontForge 20120731 at Tue Aug  2 09:44:15 2016
 By admin
</metadata>
<defs>
<font id="iconfont" horiz-adv-x="1024" >
  <font-face 
    font-family="iconfont"
    font-weight="500"
    font-stretch="normal"
    units-per-em="1024"
    panose-1="2 0 6 3 0 0 0 0 0 0"
    ascent="896"
    descent="-128"
    x-height="792"
    bbox="0 -196 1383.69 896.2"
    underline-thickness="50"
    underline-position="-100"
    unicode-range="U+0078-E635"
  />
<missing-glyph horiz-adv-x="374" 
d="M34 0v682h272v-682h-272zM68 34h204v614h-204v-614z" />
    <glyph glyph-name=".notdef" horiz-adv-x="374" 
d="M34 0v682h272v-682h-272zM68 34h204v614h-204v-614z" />
    <glyph glyph-name=".null" horiz-adv-x="0" 
 />
    <glyph glyph-name="nonmarkingreturn" horiz-adv-x="341" 
 />
    <glyph glyph-name="x" unicode="x" horiz-adv-x="1001" 
d="M281 543q-27 -1 -53 -1h-83q-18 0 -36.5 -6t-32.5 -18.5t-23 -32t-9 -45.5v-76h912v41q0 16 -0.5 30t-0.5 18q0 13 -5 29t-17 29.5t-31.5 22.5t-49.5 9h-133v-97h-438v97zM955 310v-52q0 -23 0.5 -52t0.5 -58t-10.5 -47.5t-26 -30t-33 -16t-31.5 -4.5q-14 -1 -29.5 -0.5
t-29.5 0.5h-32l-45 128h-439l-44 -128h-29h-34q-20 0 -45 1q-25 0 -41 9.5t-25.5 23t-13.5 29.5t-4 30v167h911zM163 247q-12 0 -21 -8.5t-9 -21.5t9 -21.5t21 -8.5q13 0 22 8.5t9 21.5t-9 21.5t-22 8.5zM316 123q-8 -26 -14 -48q-5 -19 -10.5 -37t-7.5 -25t-3 -15t1 -14.5
t9.5 -10.5t21.5 -4h37h67h81h80h64h36q23 0 34 12t2 38q-5 13 -9.5 30.5t-9.5 34.5q-5 19 -11 39h-368zM336 498v228q0 11 2.5 23t10 21.5t20.5 15.5t34 6h188q31 0 51.5 -14.5t20.5 -52.5v-227h-327z" />
    <glyph glyph-name="uniE600" unicode="&#xe600;" 
d="M800 -64h-576q-40 0 -68 28t-28 68v640q0 40 28 68t68 28h448q13 0 22.5 -9.5t9.5 -22.5t-9.5 -22.5t-22.5 -9.5h-448q-13 0 -22.5 -9.5t-9.5 -22.5v-640q0 -13 9.5 -22.5t22.5 -9.5h576q13 0 22.5 9.5t9.5 22.5v512q0 13 9.5 22.5t22.5 9.5t22.5 -9.5t9.5 -22.5v-512
q0 -40 -28 -68t-68 -28zM612 448q-13 0 -22.5 9.5t-9.5 22.5t9 23l318 318q10 9 23 9t22.5 -9.5t9.5 -22.5t-9 -23l-318 -318q-10 -9 -23 -9zM480 448h-192q-13 0 -22.5 9.5t-9.5 22.5t9.5 22.5t22.5 9.5h192q13 0 22.5 -9.5t9.5 -22.5t-9.5 -22.5t-22.5 -9.5zM672 256h-384
q-13 0 -22.5 9.5t-9.5 22.5t9.5 22.5t22.5 9.5h384q13 0 22.5 -9.5t9.5 -22.5t-9.5 -22.5t-22.5 -9.5z" />
    <glyph glyph-name="uniE601" unicode="&#xe601;" 
d="M957 491.5q-6 18.5 -25 21.5l-271 42l-120 259q-9 18 -29 18q-21 0 -29 -18l-122 -258l-271 -41q-19 -3 -25.5 -21.5t7.5 -32.5l196 -202l-47 -285q-3 -20 13.5 -31.5t33.5 -1.5l242 133l242 -134q7 -4 15 -4h1q13 0 22.5 9.5t9.5 22.5q0 6 -2 11l-45 279l197 201
q13 14 7 32.5z" />
    <glyph glyph-name="uniE602" unicode="&#xe602;" 
d="M767 -64q-8 0 -15 4l-242 134l-242 -133q-17 -10 -33.5 1.5t-13.5 31.5l47 285l-196 202q-14 14 -8 32.5t25 21.5l156 26q13 3 23.5 -5t13 -21t-5.5 -23.5t-21 -13.5l-95 -16l166 -170q11 -12 8 -28l-39 -235l200 110q15 8 31 -1l199 -110l-38 236q-3 16 9 27l164 169
l-225 34q-17 3 -24 18l-100 213l-100 -212q-5 -12 -17.5 -16.5t-24.5 1t-16.5 18t0.5 24.5l130 274q8 18 29 18q20 0 29 -18l120 -259l271 -42q19 -3 25 -21.5t-7 -32.5l-197 -201l46 -285q3 -20 -14 -31q-8 -6 -18 -6z" />
    <glyph glyph-name="uniE603" unicode="&#xe603;" horiz-adv-x="1028" 
d="M322 247q-1 -2 -2 -3l-51 -189q-5 -18 8 -32q9 -9 23 -9q4 0 8 1l188 51h1q3 0 5 2l503 503q23 23 23 57q0 40 -29 69l-48 47q-29 30 -69 30q-34 0 -57 -23l-502 -503h-1v-1zM956 620l-50 -50l-81 82l49 49q6 6 15.5 5.5t16.5 -7.5l47 -47q8 -8 8 -18q0 -9 -5 -14z
M411 239l363 362l81 -82l-362 -362l-82 82v0zM345 92l27 96l69 -70l-96 -26v0zM988 421q-15 0 -25 -10t-10 -25v-468q0 -18 -13 -31.5t-32 -13.5h-792q-18 0 -31 13.5t-13 31.5v764q0 19 13 32t31 13h510q15 0 25 10t10 24.5t-10 24.5t-25 10h-515q-45 0 -77 -31.5
t-32 -76.5v-775q0 -45 32 -77t77 -32h803q45 0 76.5 32t31.5 77v473q0 15 -10 25t-24 10z" />
    <glyph glyph-name="uniE604" unicode="&#xe604;" 
d="M225 713q-9 8 -21.5 8t-21.5 -8.5t-9 -21.5t9 -22l43 -43q9 -9 21.5 -9t21.5 9t9 22t-9 21l-43 44v0zM803 713l-43 -44q-9 -8 -9 -21t9 -22t21.5 -9t21.5 9l43 43q9 9 9 22t-9 21.5t-21.5 8.5t-21.5 -8v0zM149 472h-61q-13 0 -22 -9t-9 -21.5t9 -21.5t22 -9h61q12 0 21 9
t9 21.5t-9 21.5t-21 9v0zM940 472h-61q-12 0 -21 -9t-9 -21.5t9 -21.5t21 -9h61q13 0 22 9t9 21.5t-9 21.5t-22 9v0zM483 822v-61q0 -13 9 -22t22 -9t21.5 9t8.5 22v61q0 12 -8.5 21t-21.5 9t-22 -9t-9 -21v0zM301 396q0 88 62.5 150.5t150.5 62.5t150.5 -62.5t62.5 -151
t-62.5 -150.5t-150.5 -62t-150.5 62t-62.5 151v0zM240 396q0 -114 80.5 -194t194 -80t193.5 80t80 193.5t-80 194t-193.5 80.5t-194 -80.5t-80.5 -193.5v0zM453 -31q0 -12 9 -21t21 -9h61q13 0 22 9t9 21.5t-9 21.5t-22 9h-61q-12 0 -21 -9t-9 -22v0zM392 61q0 -13 9 -21.5
t22 -8.5h182q13 0 22 8.5t9 21.5t-9 21.5t-22 8.5h-182q-13 0 -22 -8.5t-9 -21.5v0zM392 61z" />
    <glyph glyph-name="uniE605" unicode="&#xe605;" 
d="M292 640h-72v73q0 15 -11 26t-26 11t-26 -11t-11 -26v-73h-72q-15 0 -26 -10.5t-11 -26t11 -26t26 -10.5h72v-73q0 -15 11 -26t26 -11t26 11t11 26v73h72q16 0 26.5 10.5t10.5 26t-10.5 26t-26.5 10.5v0zM292 640zM489 791h-45v45q0 10 -7 16.5t-16.5 6.5t-16 -6.5
t-6.5 -16.5v-45h-46q-9 0 -15.5 -7t-6.5 -16.5t6.5 -16t15.5 -6.5h46v-45q0 -10 6.5 -16.5t16 -6.5t16.5 6.5t7 16.5v45h45q9 0 16 6.5t7 16t-7 16.5t-16 7v0zM489 791zM315 855h-27v27q0 6 -4 10t-9.5 4t-9.5 -4t-4 -10v-27h-28q-5 0 -9 -4t-4 -9.5t4 -10t9 -4.5h28v-27
q0 -5 4 -9.5t9.5 -4.5t9.5 4.5t4 9.5v27h27q6 0 10 4.5t4 10t-4 9.5t-10 4v0zM315 855zM426 476q88 26 180 26t180 -26q11 17 18 36q3 7 6.5 20.5t3.5 15.5q12 43 -21 71q-43 36 -98 13q-5 -2 -7 1q-34 32 -81.5 32t-82.5 -31q-2 -3 -6 -2q-27 13 -58 7q-30 -7 -48.5 -30
t-14.5 -54q5 -44 29 -79v0zM426 476zM697 259q-33 31 -92 31q-56 0 -95.5 -32t-48.5 -84h269q0 54 -33 85zM974 175q-44 163 -186 246q-10 6 -26 14q-76 19 -156 19q-79 0 -156 -19q-110 -52 -162.5 -132.5t-61.5 -200.5q-4 -65 10 -121q12 -47 50 -78t87 -31h234h233
q74 1 117 64q18 27 25 69q14 88 -8 170zM811 120h-351q2 -67 45 -103t117 -36q84 0 155 44v-59q-65 -38 -173 -38q-106 0 -166 54t-60 152q0 93 65.5 151t163.5 58t151 -50t53 -140v-33z" />
    <glyph glyph-name="uniE606" unicode="&#xe606;" horiz-adv-x="1557" 
d="M1126 189h17v19zM1080 -127q27 2 45 21.5t18 46.5v44h-63v-112zM1094 121l-14 -29v-40h63v69h-49zM1143 480v30v40l-351 247q-5 5 -12 5h-1q-1 1 -3.5 1t-3.5 -1h-1q-7 0 -13 -5l-350 -247v-40v-30q0 -1 -0.5 -2t0.5 -2v-535q0 -28 20 -48.5t49 -20.5h507v112h-150v68
h150v40l-14 29h-136v68h104l-141 162h108l127 -152l111 134v143q1 1 0.5 2t-0.5 2zM1080 -128v1v-1zM1143 189h88v-68h-88v68zM1143 52h88v-67h-88v67zM1158 351l-15 -18v-125l124 143h-109zM1366 476l-565 412q-8 6 -19 7q-1 0 -1 1h-6h-5q-1 0 -2 -1q-11 -1 -19 -7
l-564 -412q-15 -11 -17.5 -28.5t7.5 -32.5l34 -46q11 -15 29 -17.5t32 7.5l505 369l506 -369q15 -10 32.5 -7.5t28.5 17.5l34 46q10 15 7 32.5t-17 28.5z" />
    <glyph glyph-name="uniE607" unicode="&#xe607;" horiz-adv-x="1317" 
d="M1117 802l-83 71l-17 -9q-50 -24 -102 -34t-89 -8.5t-73.5 11t-53 16.5t-29.5 14l-15 9l-14 -9q-13 -7 -29.5 -14t-53 -16t-73.5 -11t-89 8t-102 34l-17 9l-83 -71l10 -21q54 -108 54 -180q0 -18 -12 -74q-25 -123 -25 -196q0 -205 165 -261q196 -67 245 -138l24 -35
l25 35q50 71 245 138q165 56 165 261q0 68 -25 196v1q-12 57 -12 73q0 74 55 180zM450 731q30 -58 48 -127h-74q-14 63 -46 127h72zM347 505v53h130v-277q28 10 67 36v-58q-49 -44 -143 -79v325h-54zM947 179h-436v49h64v333h74v-333h72v424h-180v54h395v-54h-133v-158h115
v-53h-115v-214h144v-48z" />
    <glyph glyph-name="uniE608" unicode="&#xe608;" 
d="M446 785q-24 -20 -49 -48q-23 -26 -50 -63t-55 -91q-28 -53 -42 -102q-15 -49 -20 -88q-7 -44 -7 -84q-11 9 -23 15t-25 11q-14 5 -30 8q-31 4 -57 -2t-43 -16q-15 -11 -25 -12.5t-10 14.5q0 38 11 75.5t26.5 71t31.5 59.5q16 27 26 39q49 68 108 109q59 42 111 65
q60 27 122 39v0zM577 785q61 -11 122 -38q51 -23 111 -65t109 -109q10 -13 25 -39q15 -25 31 -59q15 -33 27 -71t12 -76q0 -20 -11 -18q-10 2 -24 15q-13 10 -36 17q-24 6 -59 3q-16 -2 -31 -8.5t-27 -11.5q-12 -7 -25 -15q-1 40 -8 84q-7 40 -20 88q-14 49 -43 102t-55 90
q-27 38 -49 63q-25 28 -49 48v0zM511 896q21 0 33 -29q6 -17 9 -23q3 -8 11 -27q5 -15 13 -32q-10 6 -26 14q-13 7 -22 11q-11 5 -18.5 5t-18.5 -4.5t-21 -10.5q-11 -6 -25 -15q6 16 12 33q6 14 10 28q3 7 9 23q6 15 16 21q9 6 18 6v0zM486 306q8 12 19 13q10 2 19 0
q10 -4 20 -10v-326q0 -49 -20.5 -80t-78.5 -31q-30 0 -49 9q-19 10 -31 23q-11 14 -15.5 30t-4.5 29q0 19 11 27t17 9q9 0 20 -7.5t12 -21.5q1 -19 9.5 -32.5t30.5 -13.5q27 0 33.5 18.5t6.5 50.5v313h1zM511 785h6q4 -1 14 -9q9 -8 26 -27q15 -17 45 -55q28 -36 49 -72
q20 -35 34 -68q15 -33 23 -59q9 -27 14 -44q0 -1 3 -12.5t5 -18.5q6 -21 10 -41q5 -22 7 -38q2 -17 -2 -22q-12 -16 -25 -8.5t-38 22.5q-13 7 -34 14q-19 6 -44 12q-23 5 -47 7q-23 3 -44 3q-41 1 -85 -9q-44 -9 -73 -22q-28 -12 -37 -22q-10 -9 -22 -6q-14 4 -13.5 34.5
t20.5 104.5q14 49 28 86q15 36 31 64q15 28 30 50q14 22 28 41q13 19 27.5 36t28.5 31q12 12 22 21q10 7 13 7v0zM511 785zM869 56h47v-37h-68l-13 -29h81v-38h-81v-80h-56v80h-82v38h82l-14 29h-68v37h48l-57 104h73l55 -110l54 110h55z" />
    <glyph glyph-name="uniE609" unicode="&#xe609;" 
d="M512 -32q-13 0 -23 9l-96 96q-9 10 -9 23t9.5 22.5t22.5 9.5t23 -9l73 -74l73 74q10 9 23 9h224q13 0 22.5 9.5t9.5 22.5v512q0 13 -9.5 22.5t-22.5 9.5h-640q-13 0 -22.5 -9.5t-9.5 -22.5v-512q0 -13 9.5 -22.5t22.5 -9.5h96q13 0 22.5 -9.5t9.5 -22.5t-9.5 -22.5
t-22.5 -9.5h-96q-40 0 -68 28t-28 68v512q0 40 28 68t68 28h640q40 0 68 -28t28 -68v-512q0 -40 -28 -68t-68 -28h-211l-86 -87q-10 -9 -23 -9zM336 384q-20 0 -34 14t-14 34t14 34t34 14t34 -14t14 -34t-14 -34t-34 -14zM528 384q-20 0 -34 14t-14 34t14 34t34 14t34 -14
t14 -34t-14 -34t-34 -14zM720 384q-20 0 -34 14t-14 34t14 34t34 14t34 -14t14 -34t-14 -34t-34 -14z" />
    <glyph glyph-name="uniE60A" unicode="&#xe60a;" 
d="M564 276l289 288q10 10 10 24.5t-10 25t-24.5 10.5t-24.5 -11l-290 -287l-286 287q-11 11 -25 11t-24.5 -10.5t-10.5 -25t10 -24.5l287 -287l-289 -288q-10 -10 -10 -24.5t10 -25t24.5 -10.5t24.5 11l289 287l289 -290q11 -10 25.5 -10t24.5 10t10 24.5t-10 24.5z
M564 276z" />
    <glyph glyph-name="uniE60B" unicode="&#xe60b;" 
d="M512 -32q-45 0 -87 41l-319 323q-25 31 -37.5 49.5t-24.5 54t-12 76.5q0 106 75 181t181 75q81 0 147 -47q11 -7 13.5 -20t-5.5 -24t-21 -13.5t-24 5.5q-49 35 -110 35q-79 0 -135.5 -56.5t-56.5 -135.5q0 -43 13 -70t46 -69l316 -319q22 -22 41 -22q18 0 41 23l317 320
q58 62 58 137q0 79 -56.5 135.5t-135.5 56.5q-75 0 -130 -50l-134 -134q-9 -10 -22 -10t-22.5 9.5t-9.5 22.5t9 23l135 135q75 68 174 68q106 0 181 -75t75 -181q0 -100 -76 -182l-317 -320q-42 -42 -87 -42z" />
    <glyph glyph-name="uniE60C" unicode="&#xe60c;" 
d="M887 279l-353 350l-1 1h-1v1q-10 9 -23 9t-22 -10l-350 -353q-10 -9 -10 -22.5t9.5 -22.5t23 -9t22.5 9l328 331l332 -330q10 -9 23 -9t22.5 9.5t9.5 23t-10 22.5z" />
    <glyph glyph-name="uniE60D" unicode="&#xe60d;" 
d="M952 402l-384 419q-15 17 -35.5 9t-20.5 -30v-225q-112 -7 -203 -63.5t-156 -158.5q-30 -48 -52.5 -104.5t-28 -78.5t-7.5 -36q-5 -23 15 -34t37 4q5 5 19 15.5t52.5 33.5t82 42.5t109 36.5t132.5 20v-284q0 -22 20 -30q6 -2 12 -2q14 0 23 10l384 413q9 9 9 21.5
t-8 21.5z" />
    <glyph glyph-name="uniE60E" unicode="&#xe60e;" 
d="M544 -64q-6 0 -12 2q-20 8 -20 30v287q-67 -3 -132.5 -20.5t-108.5 -36.5t-82.5 -43.5t-52 -34.5t-18.5 -15q-18 -16 -38 -5t-15 34q2 14 7.5 36t28 78.5t52.5 104.5q69 109 168.5 166t222.5 57q13 0 22.5 -9.5t9.5 -22.5t-9.5 -22.5t-22.5 -9.5q-68 0 -128 -21
t-100.5 -52t-74.5 -74.5t-53 -80t-35 -75.5q182 111 391 111q13 0 22.5 -9.5t9.5 -22.5v-238l308 330l-308 335v-43q0 -13 -9.5 -22.5t-22.5 -9.5t-22.5 9.5t-9.5 22.5v125q0 21 20.5 29t35.5 -8l384 -416q8 -9 8 -21.5t-9 -21.5l-384 -413q-9 -10 -23 -10z" />
    <glyph glyph-name="uniE60F" unicode="&#xe60f;" 
d="M999 391q-54 63 -142 126q-76 55 -153 87q-98 40 -191.5 40t-190.5 -40q-77 -32 -154 -87q-87 -63 -141 -126q-12 -13 0 -26q54 -63 141 -126q77 -55 154 -87q97 -40 190.5 -40t191.5 40q77 32 153 87q88 63 142 126q11 13 0 26zM359 575q79 28 154 28t153 -28
q51 -58 51 -136q0 -84 -59.5 -144t-144.5 -60t-145 60t-60 144q0 78 51 136zM833 272q-72 -52 -145 -82q-90 -37 -175 -37t-175 37q-73 29 -145 81q-68 49 -123 107q55 58 123 107q49 35 98 60q-24 -50 -24 -106q0 -101 72 -173t174 -72t173.5 72t71.5 173q0 56 -24 106
q50 -25 99 -60q67 -49 122 -107q-54 -58 -122 -106zM615 439.5q0 -42.5 -30 -72.5t-72.5 -30t-72 30t-29.5 72.5t29.5 72.5t72 30t72.5 -30t30 -72.5z" />
    <glyph glyph-name="uniE610" unicode="&#xe610;" 
d="M383 87q-8 0 -14 6t-6 14.5t6 14.5l273 278l-273 279q-6 6 -6 14.5t6 14.5t14.5 6t14.5 -6l288 -293q5 -6 5 -14.5t-5 -14.5l-288 -293q-6 -6 -15 -6z" />
    <glyph glyph-name="uniE611" unicode="&#xe611;" 
d="M760 632q-26 63 -74 111t-111 74q-64 27 -134.5 27t-135.5 -27q-62 -26 -110 -74t-74 -111q-28 -64 -28 -134.5t28 -135.5q26 -62 74 -110t110 -74q65 -28 135.5 -28t134.5 28q63 26 111 74t74 110q27 65 27 135.5t-27 134.5zM656.5 281q-89.5 -90 -216 -90t-216.5 90
t-90 216.5t90 216t216.5 89.5t216 -89.5t89.5 -216t-89.5 -216.5zM955 -37q-6 -6 -14.5 -6t-14.5 6l-194 193q-6 6 -6 14.5t6 14.5t14.5 6t14.5 -6l194 -193q6 -6 6 -14.5t-6 -14.5z" />
    <glyph glyph-name="uniE612" unicode="&#xe612;" 
d="M1004 467l-132 22q-12 40 -33 77l78 111q10 14 -2 26l-87 86q-12 13 -26 3l-109 -79q-37 21 -78 33l-23 132q-2 7 -7.5 12t-13.5 5h-122q-7 0 -13 -5t-7 -12l-22 -132q-41 -11 -78 -32l-108 78q-14 10 -27 -2l-86 -87q-12 -12 -3 -26l77 -109q-21 -38 -33 -79l-131 -22
q-7 -1 -12 -7t-5 -13v-123q0 -7 5 -12.5t12 -7.5l131 -23q12 -41 33 -79l-78 -108q-10 -14 2 -26l87 -87q12 -12 26 -2l110 77q37 -21 78 -33l22 -131q1 -8 7 -12.5t13 -4.5h122q8 0 13.5 4.5t7.5 11.5l23 133q41 12 78 32l110 -77q14 -10 26 2l87 87q12 12 2 26l-78 109
q20 37 32 78l132 23q8 2 12.5 7.5t4.5 12.5v123q0 7 -4.5 13t-12.5 7zM980 342l-128 -23q-13 -2 -17 -15q-12 -49 -37 -91q-7 -12 1 -23l76 -105l-62 -63l-107 75q-11 8 -23 1q-42 -26 -91 -38q-13 -3 -15 -16l-23 -129h-88l-21 128q-2 13 -15 16q-49 13 -92 38q-11 7 -22 0
l-106 -75l-62 63l75 104q7 11 0 23q-26 43 -38 92q-3 13 -16 15l-127 23v88l127 21q13 2 16 15q13 49 39 92q6 11 -1 22l-74 106l62 62l105 -75q11 -8 23 -1q42 26 91 38q13 3 16 17l20 127h88l23 -128q2 -13 15 -16q49 -12 91 -38q12 -7 23 0l105 76l63 -62l-76 -107
q-7 -11 0 -22q25 -43 37 -91q4 -13 17 -15l128 -21v-88zM695 385q0 -9 -6 -15t-14.5 -6t-14.5 6t-6 15q0 59 -42 101t-101 42t-101 -42t-42 -101t42 -101t101 -42q51 0 90 32q6 5 14.5 4t14 -7.5t4.5 -15t-8 -13.5q-50 -41 -115 -41q-76 0 -129.5 54t-53.5 130t53.5 129.5
t129.5 53.5t130 -53.5t54 -129.5z" />
    <glyph glyph-name="uniE613" unicode="&#xe613;" 
d="M1007 23q-26 -38 -70 -83q-62 -66 -96 -66h-2q-75 3 -163 44q-161 76 -357.5 273t-272.5 358q-42 88 -44 162v1q-1 34 65 98q45 43 84 70q26 18 54 16q28 -3 42 -22q8 -12 67.5 -102t70.5 -107q20 -31 -5 -78q-10 -20 -53 -94q44 -63 137 -156q48 -49 91 -85.5t56 -45.5
t19 -13q7 -4 9 -12t-2 -15.5t-12.5 -9.5t-15.5 2q-60 35 -174 150q-115 115 -149 174q-6 10 -1 20q52 91 59 104q14 26 7 37q-11 16 -70.5 106t-66.5 101q-4 5 -14 5.5t-26 -8.5q-36 -25 -78 -66q-24 -23 -37 -40t-14.5 -21.5t-1.5 -6.5q2 -67 39 -146q74 -155 265.5 -347
t346.5 -265q80 -38 146 -40h1q4 0 14 7q22 13 53 46q41 43 66 79q9 15 8.5 25.5t-5.5 13.5l-102 68q-90 60 -104 69q-10 6 -31 -4q-4 -1 -7 -3q-7 -4 -15 -1.5t-12 10t-1.5 16t9.5 12.5q5 2 9 4q41 18 69 1q14 -9 104.5 -69t104.5 -69q20 -14 22.5 -42.5t-16.5 -54.5z" />
    <glyph glyph-name="uniE614" unicode="&#xe614;" 
d="M894 487h-576q-3 11 -16 52t-16 51q-25 80 14.5 155t120.5 100t155.5 -14.5t99.5 -120.5l27 -87l39 12q-23 73 -27 87q-30 97 -119.5 144.5t-186.5 17.5t-144.5 -119.5t-17.5 -186.5q10 -32 28 -91h-115q-9 0 -15 -6t-6 -14v-572q0 -8 6 -14t15 -6h734q9 0 15 6t6 14v572
q0 8 -6 14t-15 6zM874 -84h-694v530h694v-530zM588 222q0 -27 -20 -45v-57q0 -17 -12 -29t-29 -12t-29 12t-12 29v57q-20 18 -20 45q0 25 18 43t43 18t43 -18t18 -43z" />
    <glyph glyph-name="uniE615" unicode="&#xe615;" 
d="M512 832q-185 0 -316.5 -112.5t-131.5 -271.5q0 -137 100.5 -242.5t256.5 -133.5l65 -91q10 -13 26 -13t26 13l65 91q156 28 256.5 133.5t100.5 242.5q0 159 -131.5 271.5t-316.5 112.5zM288.5 384q-26.5 0 -45.5 19t-19 45t19 45t45.5 19t45 -19t18.5 -45t-18.5 -45
t-45 -19zM512.5 384q-26.5 0 -45.5 19t-19 45t19 45t45.5 19t45 -19t18.5 -45t-18.5 -45t-45 -19zM736.5 384q-26.5 0 -45.5 19t-19 45t19 45t45.5 19t45 -19t18.5 -45t-18.5 -45t-45 -19z" />
    <glyph glyph-name="uniE616" unicode="&#xe616;" 
d="M512 -32q-16 0 -26 13l-65 91q-156 28 -256.5 133.5t-100.5 242.5q0 159 131.5 271.5t316.5 112.5t316.5 -112.5t131.5 -271.5q0 -137 -100.5 -242.5t-256.5 -133.5l-65 -91q-10 -13 -26 -13zM512 768q-159 0 -271.5 -94t-112.5 -226q0 -116 89.5 -205t226.5 -110
q13 -2 21 -13l47 -65l47 65q7 11 21 13q137 21 226.5 110t89.5 205q0 132 -112.5 226t-271.5 94zM288.5 384q-26.5 0 -45.5 19t-19 45t19 45t45.5 19t45 -19t18.5 -45t-18.5 -45t-45 -19zM288 448v-32v32zM736.5 384q-26.5 0 -45.5 19t-19 45t19 45t45.5 19t45 -19t18.5 -45
t-18.5 -45t-45 -19zM736 448v-32v32zM512.5 384q-26.5 0 -45.5 19t-19 45t19 45t45.5 19t45 -19t18.5 -45t-18.5 -45t-45 -19zM512 448v-32v32z" />
    <glyph glyph-name="uniE617" unicode="&#xe617;" 
d="M512 700q79 0 151 -30q70 -30 123.5 -83.5t83.5 -123.5q30 -72 30 -151t-30 -151q-30 -70 -83.5 -123.5t-123.5 -83.5q-72 -30 -151 -30t-151 30q-70 30 -123.5 83.5t-83.5 123.5q-30 72 -30 151t30 151q30 70 83.5 123.5t123.5 83.5q72 30 151 30zM512 760
q-122 0 -225 -60t-163 -163t-60 -225t60 -225t163 -163t225 -60t225 60t163 163t60 225t-60 225t-163 163t-225 60zM727 342h-185v185q0 12 -9 21t-21 9t-21 -9t-9 -21v-185h-185q-12 0 -21 -9t-9 -21t9 -21t21 -9h185v-185q0 -12 9 -21t21 -9t21 9t9 21v185h185q12 0 21 9
t9 21t-9 21t-21 9z" />
    <glyph glyph-name="uniE618" unicode="&#xe618;" 
d="M512 832q-185 0 -316.5 -131.5t-131.5 -316.5t131.5 -316.5t316.5 -131.5t316.5 131.5t131.5 316.5t-131.5 316.5t-316.5 131.5zM566 248q10 -9 10 -22.5t-9.5 -22.5t-23 -9t-22.5 9l-159 160v0q-3 3 -6 8v1l-1 1q-8 20 7 35l160 158q10 10 23 10t22.5 -9.5t9.5 -23
t-10 -22.5l-137 -136z" />
    <glyph glyph-name="uniE619" unicode="&#xe619;" 
d="M957 557.5q-9 18.5 -29 18.5h-832q-20 0 -29 -18.5t5 -34.5l416 -485q9 -11 24 -11t24 11l416 485q14 16 5 34.5z" />
    <glyph glyph-name="uniE61A" unicode="&#xe61a;" 
d="M952 181l-416 485q-9 11 -24 11t-24 -11l-416 -485q-14 -16 -5 -34.5t29 -18.5h832q20 0 29 18.5t-5 34.5z" />
    <glyph glyph-name="uniE61C" unicode="&#xe61c;" 
d="M863 -128h-702q-27 0 -45.5 18.5t-18.5 45.5v801q0 26 18.5 43.5t45.5 17.5h223v-64h-191q-13 0 -22.5 -9.5t-9.5 -22.5v-734q0 -14 9.5 -23t22.5 -9h638q13 0 22.5 9t9.5 23v734q0 13 -9.5 22.5t-22.5 9.5h-191v64h223q27 0 45.5 -17.5t18.5 -43.5v-801
q0 -27 -18.5 -45.5t-45.5 -18.5zM416 511h319v-64h-319v64zM416 351l319 1v-65h-319v64zM735 129l-319 -1v64h319v-63zM289 511l63 1v-65h-63v64zM289 353l63 -2v-64h-63v66zM352 128l-63 2v62h63v-64zM703 700q14 0 23 -9t9 -23v-30h-446v30q0 14 9 23t23 9h95q1 46 1 97
q0 41 27.5 70t67.5 29t68.5 -30t28.5 -69l-1 -97h95zM512 800q-13 0 -22.5 -10t-9.5 -24q0 -13 9.5 -22.5t22.5 -9.5t22.5 9.5t9.5 22.5t-9.5 23.5t-22.5 10.5z" />
    <glyph glyph-name="uniE61D" unicode="&#xe61d;" 
d="M896 -128h-768q-53 0 -90.5 37.5t-37.5 90.5v768q0 53 37.5 90.5t90.5 37.5h768q53 0 90.5 -37.5t37.5 -90.5v-768q0 -53 -37.5 -90.5t-90.5 -37.5zM896 -64q26 0 45 19t19 45v256l-192 192l-273 -273l236 -239h165zM64 0q0 -26 19 -45t45 -19h512l-322 322l-254 -228
v-30zM960 768q0 26 -19 45t-45 19h-768q-26 0 -45 -19t-19 -45v-651l256 235l130 -132l318 324l192 -196v420zM256 512q-53 0 -90.5 37.5t-37.5 90.5t37.5 90.5t90.5 37.5t90.5 -37.5t37.5 -90.5t-37.5 -90.5t-90.5 -37.5zM256 704q-26 0 -45 -19t-19 -45t19 -45t45 -19
t45 19t19 45t-19 45t-45 19z" />
    <glyph glyph-name="uniE61E" unicode="&#xe61e;" horiz-adv-x="1186" 
d="M992 285q-7 -16 -24 -27t-36 -11h-533l37 -132q4 -1 5 -1h492q13 3 25 3q51 0 86.5 -36t35.5 -86.5t-35.5 -86.5t-86 -36t-86 36t-35.5 86q0 37 20 68h-340q20 -31 20 -68q0 -50 -35.5 -86t-86 -36t-86 36t-35.5 86q0 42 25 75t65 43l-165 703q-2 12 -13.5 20.5
t-24.5 8.5h-142q-10 0 -18 7.5t-8 18.5t8 18.5t18 7.5h142q31 0 56.5 -20.5t32.5 -49.5l16 -73h843q24 0 36 -19q13 -20 3 -44zM958 -76q29 0 50 20.5t21 49.5q0 28 -19.5 48.5t-46.5 22.5q-6 -3 -11 -3h-13q-22 -6 -36.5 -25t-14.5 -43q0 -29 20.5 -49.5t49.5 -20.5z
M345 -6q0 -29 20.5 -49.5t50 -20.5t50 20.5t20.5 49.5q0 24 -14.5 43t-36.5 25h-13q-6 0 -11 3q-28 -2 -47 -22.5t-19 -48.5zM297 701l90 -402h545q10 0 13 7l172 395h-820z" />
    <glyph glyph-name="uniE61F" unicode="&#xe61f;" 
d="M678 640v90q0 28 -16.5 44.5t-45.5 16.5h-208q-29 0 -45.5 -16.5t-16.5 -44.5v-90h-180v-60h60v-512q0 -41 24 -66t66 -25h392q41 0 65.5 24t24.5 67v512h60v60h-180zM407 730h210l-1 -90h-209v90zM738 38h-452v542h452v-542zM467 520h-59l-1 -392h60v392zM617 520h-60
v-392h60v392z" />
    <glyph glyph-name="uniE620" unicode="&#xe620;" 
d="M976 324q-9 -12 -26.5 -31t-66.5 -60.5t-100 -74t-125.5 -58.5t-145.5 -26t-145.5 26t-125.5 58.5t-100 74.5t-66 60.5t-28 30.5l-17 21l17 21q11 13 28 31.5t66 60.5t100 74t125.5 58t145.5 26t145.5 -26t125.5 -58t100 -74t66 -61t27 -31l18 -21zM512 551
q-52 0 -107 -16.5t-97 -39t-83.5 -53.5t-65.5 -53t-44 -44q20 -22 44 -43.5t65.5 -52.5t83.5 -54t97 -39.5t107 -16.5t107 16.5t97 39.5t83.5 54t65.5 52.5t44 43.5q-20 22 -44 44t-65.5 53t-83.5 53.5t-97 39t-107 16.5zM512 204q-56 0 -96 41.5t-40 99.5t40 99.5t96 41.5
t96 -41.5t40 -99.5t-40 -99.5t-96 -41.5zM512 421q-30 0 -51.5 -22t-21.5 -53.5t21.5 -54t51.5 -22.5t51.5 22.5t21.5 54t-21.5 53.5t-51.5 22z" />
    <glyph glyph-name="uniE621" unicode="&#xe621;" 
d="M752 272q-41 0 -75 -21.5t-52 -56.5l-258 156q17 32 17 66q0 22 -8 46l269 146q44 -48 107 -48q60 0 102 42t42 102t-42 102t-102 42t-102 -42t-42 -102q0 -18 6 -40l-272 -147q-42 43 -102 43t-102 -42t-42 -102t42 -102t102 -42q47 0 85 29l283 -172v-1q0 -60 42 -102
t102 -42t102 42t42 102t-42 102t-102 42zM752 784q33 0 56.5 -23.5t23.5 -56.5t-23.5 -56.5t-56.5 -23.5t-56.5 23.5t-23.5 56.5t23.5 56.5t56.5 23.5zM240 336q-33 0 -56.5 23.5t-23.5 56.5t23.5 56.5t56.5 23.5t56.5 -23.5t23.5 -56.5t-23.5 -56.5t-56.5 -23.5zM752 48
q-33 0 -56.5 23.5t-23.5 56.5t23.5 56.5t56.5 23.5t56.5 -23.5t23.5 -56.5t-23.5 -56.5t-56.5 -23.5z" />
    <glyph glyph-name="uniE622" unicode="&#xe622;" horiz-adv-x="1152" 
d="M576 713l85 -228l16 -42h44h221l-176 -130l-35 -26l11 -42l60 -224l-190 129l-35 24l-35 -23l-204 -130l71 221l14 43l-37 28l-176 130h221h44l16 41zM576 896l-145 -389h-415l332 -246l-125 -389l353 225l332 -225l-104 389l332 246h-415z" />
    <glyph glyph-name="uniE624" unicode="&#xe624;" horiz-adv-x="1029" 
d="M303 595v10q0 121 -1 131q-1 30 19 50t50 19h285q31 0 49.5 -18.5t18.5 -49.5v-142h9q90 0 134 -1q30 0 48.5 -18t18.5 -49v-497q0 -31 -18.5 -49.5t-48.5 -18.5h-707q-31 0 -49.5 18.5t-18.5 48.5v499q0 30 18.5 48t49.5 18q89 0 134 1q1 -1 9 0zM723 551h-420v-546h420
v546zM766 552v-546l3 -1h103q9 0 14 7q6 9 6 20v492v9q-2 18 -20 19h-106zM259 552h-102q-23 0 -23 -24v-499q0 -24 24 -24h95h3h3v547zM681 595v5v3v134q0 26 -26 26h-285q-14 0 -20 -6t-6 -21v-132q0 -2 0.5 -5t0.5 -4h336z" />
    <glyph glyph-name="uniE625" unicode="&#xe625;" 
d="M302 355l85 -84l94 -94l39 -39q8 -8 8 -18.5t-7.5 -18t-18.5 -7.5t-18 8l-39 38l-94 94l-133 133q-7 8 -7 18.5t7 17.5l266 266q7 7 18 7t18.5 -7.5t7.5 -18t-8 -17.5l-224 -225h486q11 0 19 -7.5t8 -18.5t-8 -19t-19 -8h-480zM256 402l-1 1v-2q0 1 1 1z" />
    <glyph glyph-name="uniE626" unicode="&#xe626;" 
d="M511 194l-225 222l-33 -33l259 -255l337 343l-34 32zM512 896q-30 0 -84.5 -2t-188.5 -17.5t-238 -43.5v-448q1 -12 4 -31.5t21 -70t47 -97.5q59 -98 153 -171q118 -91 286 -143q168 52 285 143q94 72 154 170q29 47 47 98t21 70t4 32v448q-104 28 -238 43.5t-188.5 17.5
t-84.5 2zM512 853q28 0 76.5 -1.5t171.5 -15t221 -36.5v-157h-938v157q98 23 221 36.5t171.5 15t76.5 1.5zM981 387q-9 -85 -67 -180q-56 -91 -143 -159q-107 -83 -259 -131q-153 49 -260 132q-87 68 -143 159q-58 95 -66 179v211h938v-211z" />
    <glyph glyph-name="uniE62A" unicode="&#xe62a;" 
d="M931 352h-580q-13 0 -22.5 9.5t-9.5 22.5t9.5 22.5t22.5 9.5h580q13 0 22.5 -9.5t9.5 -22.5t-9.5 -22.5t-22.5 -9.5zM931 610h-580q-13 0 -22.5 9t-9.5 22.5t9.5 23t22.5 9.5h580q13 0 22.5 -9.5t9.5 -23t-9.5 -22.5t-22.5 -9zM125.5 62q-26.5 0 -45.5 18.5t-19 45.5
t19 46t45.5 19t45.5 -19t19 -46t-19 -45.5t-45.5 -18.5zM125.5 320q-26.5 0 -45.5 18.5t-19 45.5t19 45.5t45.5 18.5t45.5 -18.5t19 -45.5t-19 -45.5t-45.5 -18.5zM125.5 577q-26.5 0 -45.5 19t-19 46t19 45.5t45.5 18.5t45.5 -18.5t19 -45.5t-19 -46t-45.5 -19zM351 158
h580q13 0 22.5 -9t9.5 -22.5t-9.5 -23t-22.5 -9.5h-580q-13 0 -22.5 9.5t-9.5 23t9.5 22.5t22.5 9z" />
    <glyph glyph-name="uniE62B" unicode="&#xe62b;" 
d="M384 256h384v-64h-384v64zM384 512h384v-64h-384v64zM384 384h384v-64h-384v64zM384 128h384v-64h-384v64zM128 832h512v-64h64v64v64h-64h-576v-832v-64h64h64v64h-64v768zM256 704v-832h640v832h-640zM832 -64h-512v704h512v-704z" />
    <glyph glyph-name="uniE62C" unicode="&#xe62c;" 
d="M736 896h-448q-84 0 -143.5 -57t-59.5 -138v-475q0 -13 9.5 -22.5t23 -9.5t22.5 9.5t9 22.5v475q0 54 41 92.5t98 38.5h448q57 0 98 -38.5t41 -92.5v-625q0 -75 -31.5 -107.5t-102.5 -32.5h-457q-73 0 -104 32t-31 108q0 13 -9 22.5t-22.5 9.5t-23 -9.5t-9.5 -22.5
q0 -204 199 -204h457q198 0 198 204v625q0 81 -59.5 138t-143.5 57zM784.5 719.5q-6.5 11.5 -19.5 15t-24 -2.5q-60 -33 -130 -44.5t-121.5 -7t-103 18t-70 21.5t-27.5 12q-12 7 -24.5 2.5t-18.5 -16t-2 -24t16 -18.5q15 -8 40 -18.5t93.5 -26.5t133.5 -16q133 0 245 61
q11 6 15 19t-2.5 24.5zM659 258q13 0 22.5 9.5t9.5 23t-9.5 22.5t-22.5 9h-87l88 133q7 11 4.5 24t-13.5 20.5t-24 5t-20 -13.5l-93 -140l-93 140q-8 11 -21 13.5t-24 -5t-13.5 -20.5t4.5 -24l89 -133h-84q-13 0 -22.5 -9t-9.5 -22.5t9.5 -23t22.5 -9.5h111v-54h-111
q-13 0 -22.5 -9t-9.5 -22.5t9.5 -23t22.5 -9.5h111v-82q0 -13 9.5 -22.5t23 -9.5t22.5 9.5t9 22.5v82h112q13 0 22.5 9.5t9.5 23t-9.5 22.5t-22.5 9h-112v54h112z" />
    <glyph glyph-name="uniE62D" unicode="&#xe62d;" 
d="M512 678q73 0 142 -24.5t116.5 -58t91 -78.5t65 -75t39.5 -59q-18 -29 -39.5 -59t-64.5 -75t-90.5 -78t-117 -57t-142.5 -24q-83 0 -156 24t-120.5 57t-87.5 77.5t-58.5 74.5t-32.5 58q17 29 39 59t65.5 75.5t91.5 79t117 58.5t142 25zM512 729q-69 0 -134.5 -19
t-115 -49t-93.5 -67.5t-74 -73.5t-52.5 -67.5t-32.5 -49t-10 -19.5q3 -7 8.5 -19.5t26.5 -48.5t46.5 -68.5t69 -72.5t93 -68.5t120 -48t148.5 -19.5q70 0 137 19.5t115.5 48t93.5 68t73 72t52 68.5t31 48.5t10 19.5q-4 7 -10.5 19.5t-31 48.5t-52 68.5t-72.5 72.5t-94 69
t-115.5 48.5t-136.5 19.5zM512 500q50 0 83 -33t33 -83t-33 -83t-83 -33t-83 33t-33 83t33 83t83 33zM512 551q-72 0 -119.5 -48t-47.5 -119t47.5 -119t119.5 -48t119.5 48t47.5 119t-47.5 119t-119.5 48z" />
    <glyph glyph-name="uniE62E" unicode="&#xe62e;" 
d="M919 896h-181h-1q-12 0 -21.5 -8t-11.5 -19l-1 -1q-4 -18 -8 -30t-11.5 -27t-19 -22.5t-26.5 -7.5h-271q-15 0 -26 7.5t-18.5 22.5t-11.5 26t-9 30q-1 12 -9.5 20t-21.5 9h-166q-18 0 -31.5 -12.5t-13.5 -30.5v-938q0 -18 13.5 -30.5t31.5 -12.5h814q18 0 31.5 12.5
t13.5 30.5v938q0 18 -13.5 30.5t-31.5 12.5v0zM919 -85h-814v938h154q5 -17 8.5 -28.5t12.5 -29.5t19.5 -29t28.5 -19.5t39 -8.5h271q27 0 47.5 11.5t32.5 32t17.5 36t10.5 35.5h173v-938v0zM399 853h226q9 0 16 6.5t7 15t-7 15t-16 6.5h-226q-9 0 -16 -6.5t-7 -15t7 -15
t16 -6.5v0zM204 532q0 -9 6.5 -15t16.5 -6h576q9 0 16 6t7 15t-7 15t-16 6h-576q-10 0 -16.5 -6t-6.5 -15v0zM803 349h-576q-10 0 -16.5 -6t-6.5 -15t6.5 -15t16.5 -6h576q9 0 16 6t7 15t-7 15t-16 6v0zM803 147h-576q-10 0 -16.5 -6.5t-6.5 -15t6.5 -15t16.5 -6.5h576
q9 0 16 6.5t7 15t-7 15t-16 6.5v0z" />
    <glyph glyph-name="uniE62F" unicode="&#xe62f;" 
d="M399 -1q-5 4 -11.5 12t-18 37.5t-11.5 63.5t19.5 90t62.5 117q35 -34 42 -63l6 6q5 5 16.5 21.5t19 36.5t12 54t1.5 72q4 -3 12.5 -9.5t30.5 -28.5t40 -47t36.5 -65t26.5 -82t2.5 -99t-28.5 -116q7 2 19.5 6.5t43.5 24t54.5 44t42.5 69.5t19.5 98.5t-27.5 132t-87 169.5
q-7 -62 -27 -83q-1 4 -2 12t-9 31.5t-19.5 46.5t-35.5 54.5t-54.5 59t-79 56.5t-106.5 50q2 -5 5.5 -13t11.5 -33t12 -50.5t4 -61.5t-8.5 -69.5t-30.5 -71.5t-56 -69q-20 47 -47 88q-1 -4 -2 -11t-5.5 -27t-11.5 -38t-20.5 -39.5t-30.5 -36.5q-9 -7 -16.5 -26.5t-10 -47.5
t-0.5 -60t16 -64.5t37 -61t65 -50t98 -29.5z" />
    <glyph glyph-name="uniE630" unicode="&#xe630;" 
d="M449 61q-105 0 -194 51.5t-140.5 140.5t-51.5 193.5t51.5 193.5t140.5 141t194 52t193.5 -52t140.5 -141t52 -193.5t-52 -193.5t-140.5 -140.5t-193.5 -51.5zM449 738q-120 0 -205.5 -85.5t-85.5 -206t85.5 -205.5t205.5 -85t205.5 85t85.5 205.5t-85.5 206t-205.5 85.5z
M900 -62q-25 0 -42 17l-201 201q-17 17 -17 41.5t17 41.5t41 17t41 -17l202 -202q17 -17 17 -41t-17 -41t-41 -17z" />
    <glyph glyph-name="uniE631" unicode="&#xe631;" 
d="M709 -61q-23 0 -40 16l-390 391q-2 2 -3 4l-2 3q-17 17 -17 39t16 38l392 388q17 16 40 16t39 -16q17 -16 17 -39q0 -22 -16 -38l-354 -350l358 -360q16 -16 16 -38q0 -23 -17 -39q-16 -15 -39 -15z" />
    <glyph glyph-name="uniE635" unicode="&#xe635;" 
d="M939 -30l-21 -21q-11 -11 -28 -11t-29 11l-146 152q-114 -79 -241 -79q-108 0 -200.5 55t-147 149t-54.5 204q0 108 54.5 200.5t148.5 147t204.5 54.5t204.5 -54.5t148.5 -148.5t54.5 -204q0 -143 -89 -256l146 -147q9 -7 8 -24t-13 -28v0zM480 727q-125 0 -214 -87.5
t-89 -209.5t89 -210t214 -88t214 88t89 210q0 79 -42 148t-112 109t-149 40v0zM480 727z" />
  </font>
</defs></svg>
<?xml version="1.0" standalone="no"?>
<!DOCTYPE svg PUBLIC "-//W3C//DTD SVG 1.1//EN" "http://www.w3.org/Graphics/SVG/1.1/DTD/svg11.dtd" >
<svg xmlns="http://www.w3.org/2000/svg">
<metadata>
Created by FontForge 20120731 at Tue Aug  2 09:44:15 2016
 By admin
</metadata>
<defs>
<font id="iconfont" horiz-adv-x="1024" >
  <font-face 
    font-family="iconfont"
    font-weight="500"
    font-stretch="normal"
    units-per-em="1024"
    panose-1="2 0 6 3 0 0 0 0 0 0"
    ascent="896"
    descent="-128"
    x-height="792"
    bbox="0 -196 1383.69 896.2"
    underline-thickness="50"
    underline-position="-100"
    unicode-range="U+0078-E635"
  />
<missing-glyph horiz-adv-x="374" 
d="M34 0v682h272v-682h-272zM68 34h204v614h-204v-614z" />
    <glyph glyph-name=".notdef" horiz-adv-x="374" 
d="M34 0v682h272v-682h-272zM68 34h204v614h-204v-614z" />
    <glyph glyph-name=".null" horiz-adv-x="0" 
 />
    <glyph glyph-name="nonmarkingreturn" horiz-adv-x="341" 
 />
    <glyph glyph-name="x" unicode="x" horiz-adv-x="1001" 
d="M281 543q-27 -1 -53 -1h-83q-18 0 -36.5 -6t-32.5 -18.5t-23 -32t-9 -45.5v-76h912v41q0 16 -0.5 30t-0.5 18q0 13 -5 29t-17 29.5t-31.5 22.5t-49.5 9h-133v-97h-438v97zM955 310v-52q0 -23 0.5 -52t0.5 -58t-10.5 -47.5t-26 -30t-33 -16t-31.5 -4.5q-14 -1 -29.5 -0.5
t-29.5 0.5h-32l-45 128h-439l-44 -128h-29h-34q-20 0 -45 1q-25 0 -41 9.5t-25.5 23t-13.5 29.5t-4 30v167h911zM163 247q-12 0 -21 -8.5t-9 -21.5t9 -21.5t21 -8.5q13 0 22 8.5t9 21.5t-9 21.5t-22 8.5zM316 123q-8 -26 -14 -48q-5 -19 -10.5 -37t-7.5 -25t-3 -15t1 -14.5
t9.5 -10.5t21.5 -4h37h67h81h80h64h36q23 0 34 12t2 38q-5 13 -9.5 30.5t-9.5 34.5q-5 19 -11 39h-368zM336 498v228q0 11 2.5 23t10 21.5t20.5 15.5t34 6h188q31 0 51.5 -14.5t20.5 -52.5v-227h-327z" />
    <glyph glyph-name="uniE600" unicode="&#xe600;" 
d="M800 -64h-576q-40 0 -68 28t-28 68v640q0 40 28 68t68 28h448q13 0 22.5 -9.5t9.5 -22.5t-9.5 -22.5t-22.5 -9.5h-448q-13 0 -22.5 -9.5t-9.5 -22.5v-640q0 -13 9.5 -22.5t22.5 -9.5h576q13 0 22.5 9.5t9.5 22.5v512q0 13 9.5 22.5t22.5 9.5t22.5 -9.5t9.5 -22.5v-512
q0 -40 -28 -68t-68 -28zM612 448q-13 0 -22.5 9.5t-9.5 22.5t9 23l318 318q10 9 23 9t22.5 -9.5t9.5 -22.5t-9 -23l-318 -318q-10 -9 -23 -9zM480 448h-192q-13 0 -22.5 9.5t-9.5 22.5t9.5 22.5t22.5 9.5h192q13 0 22.5 -9.5t9.5 -22.5t-9.5 -22.5t-22.5 -9.5zM672 256h-384
q-13 0 -22.5 9.5t-9.5 22.5t9.5 22.5t22.5 9.5h384q13 0 22.5 -9.5t9.5 -22.5t-9.5 -22.5t-22.5 -9.5z" />
    <glyph glyph-name="uniE601" unicode="&#xe601;" 
d="M957 491.5q-6 18.5 -25 21.5l-271 42l-120 259q-9 18 -29 18q-21 0 -29 -18l-122 -258l-271 -41q-19 -3 -25.5 -21.5t7.5 -32.5l196 -202l-47 -285q-3 -20 13.5 -31.5t33.5 -1.5l242 133l242 -134q7 -4 15 -4h1q13 0 22.5 9.5t9.5 22.5q0 6 -2 11l-45 279l197 201
q13 14 7 32.5z" />
    <glyph glyph-name="uniE602" unicode="&#xe602;" 
d="M767 -64q-8 0 -15 4l-242 134l-242 -133q-17 -10 -33.5 1.5t-13.5 31.5l47 285l-196 202q-14 14 -8 32.5t25 21.5l156 26q13 3 23.5 -5t13 -21t-5.5 -23.5t-21 -13.5l-95 -16l166 -170q11 -12 8 -28l-39 -235l200 110q15 8 31 -1l199 -110l-38 236q-3 16 9 27l164 169
l-225 34q-17 3 -24 18l-100 213l-100 -212q-5 -12 -17.5 -16.5t-24.5 1t-16.5 18t0.5 24.5l130 274q8 18 29 18q20 0 29 -18l120 -259l271 -42q19 -3 25 -21.5t-7 -32.5l-197 -201l46 -285q3 -20 -14 -31q-8 -6 -18 -6z" />
    <glyph glyph-name="uniE603" unicode="&#xe603;" horiz-adv-x="1028" 
d="M322 247q-1 -2 -2 -3l-51 -189q-5 -18 8 -32q9 -9 23 -9q4 0 8 1l188 51h1q3 0 5 2l503 503q23 23 23 57q0 40 -29 69l-48 47q-29 30 -69 30q-34 0 -57 -23l-502 -503h-1v-1zM956 620l-50 -50l-81 82l49 49q6 6 15.5 5.5t16.5 -7.5l47 -47q8 -8 8 -18q0 -9 -5 -14z
M411 239l363 362l81 -82l-362 -362l-82 82v0zM345 92l27 96l69 -70l-96 -26v0zM988 421q-15 0 -25 -10t-10 -25v-468q0 -18 -13 -31.5t-32 -13.5h-792q-18 0 -31 13.5t-13 31.5v764q0 19 13 32t31 13h510q15 0 25 10t10 24.5t-10 24.5t-25 10h-515q-45 0 -77 -31.5
t-32 -76.5v-775q0 -45 32 -77t77 -32h803q45 0 76.5 32t31.5 77v473q0 15 -10 25t-24 10z" />
    <glyph glyph-name="uniE604" unicode="&#xe604;" 
d="M225 713q-9 8 -21.5 8t-21.5 -8.5t-9 -21.5t9 -22l43 -43q9 -9 21.5 -9t21.5 9t9 22t-9 21l-43 44v0zM803 713l-43 -44q-9 -8 -9 -21t9 -22t21.5 -9t21.5 9l43 43q9 9 9 22t-9 21.5t-21.5 8.5t-21.5 -8v0zM149 472h-61q-13 0 -22 -9t-9 -21.5t9 -21.5t22 -9h61q12 0 21 9
t9 21.5t-9 21.5t-21 9v0zM940 472h-61q-12 0 -21 -9t-9 -21.5t9 -21.5t21 -9h61q13 0 22 9t9 21.5t-9 21.5t-22 9v0zM483 822v-61q0 -13 9 -22t22 -9t21.5 9t8.5 22v61q0 12 -8.5 21t-21.5 9t-22 -9t-9 -21v0zM301 396q0 88 62.5 150.5t150.5 62.5t150.5 -62.5t62.5 -151
t-62.5 -150.5t-150.5 -62t-150.5 62t-62.5 151v0zM240 396q0 -114 80.5 -194t194 -80t193.5 80t80 193.5t-80 194t-193.5 80.5t-194 -80.5t-80.5 -193.5v0zM453 -31q0 -12 9 -21t21 -9h61q13 0 22 9t9 21.5t-9 21.5t-22 9h-61q-12 0 -21 -9t-9 -22v0zM392 61q0 -13 9 -21.5
t22 -8.5h182q13 0 22 8.5t9 21.5t-9 21.5t-22 8.5h-182q-13 0 -22 -8.5t-9 -21.5v0zM392 61z" />
    <glyph glyph-name="uniE605" unicode="&#xe605;" 
d="M292 640h-72v73q0 15 -11 26t-26 11t-26 -11t-11 -26v-73h-72q-15 0 -26 -10.5t-11 -26t11 -26t26 -10.5h72v-73q0 -15 11 -26t26 -11t26 11t11 26v73h72q16 0 26.5 10.5t10.5 26t-10.5 26t-26.5 10.5v0zM292 640zM489 791h-45v45q0 10 -7 16.5t-16.5 6.5t-16 -6.5
t-6.5 -16.5v-45h-46q-9 0 -15.5 -7t-6.5 -16.5t6.5 -16t15.5 -6.5h46v-45q0 -10 6.5 -16.5t16 -6.5t16.5 6.5t7 16.5v45h45q9 0 16 6.5t7 16t-7 16.5t-16 7v0zM489 791zM315 855h-27v27q0 6 -4 10t-9.5 4t-9.5 -4t-4 -10v-27h-28q-5 0 -9 -4t-4 -9.5t4 -10t9 -4.5h28v-27
q0 -5 4 -9.5t9.5 -4.5t9.5 4.5t4 9.5v27h27q6 0 10 4.5t4 10t-4 9.5t-10 4v0zM315 855zM426 476q88 26 180 26t180 -26q11 17 18 36q3 7 6.5 20.5t3.5 15.5q12 43 -21 71q-43 36 -98 13q-5 -2 -7 1q-34 32 -81.5 32t-82.5 -31q-2 -3 -6 -2q-27 13 -58 7q-30 -7 -48.5 -30
t-14.5 -54q5 -44 29 -79v0zM426 476zM697 259q-33 31 -92 31q-56 0 -95.5 -32t-48.5 -84h269q0 54 -33 85zM974 175q-44 163 -186 246q-10 6 -26 14q-76 19 -156 19q-79 0 -156 -19q-110 -52 -162.5 -132.5t-61.5 -200.5q-4 -65 10 -121q12 -47 50 -78t87 -31h234h233
q74 1 117 64q18 27 25 69q14 88 -8 170zM811 120h-351q2 -67 45 -103t117 -36q84 0 155 44v-59q-65 -38 -173 -38q-106 0 -166 54t-60 152q0 93 65.5 151t163.5 58t151 -50t53 -140v-33z" />
    <glyph glyph-name="uniE606" unicode="&#xe606;" horiz-adv-x="1557" 
d="M1126 189h17v19zM1080 -127q27 2 45 21.5t18 46.5v44h-63v-112zM1094 121l-14 -29v-40h63v69h-49zM1143 480v30v40l-351 247q-5 5 -12 5h-1q-1 1 -3.5 1t-3.5 -1h-1q-7 0 -13 -5l-350 -247v-40v-30q0 -1 -0.5 -2t0.5 -2v-535q0 -28 20 -48.5t49 -20.5h507v112h-150v68
h150v40l-14 29h-136v68h104l-141 162h108l127 -152l111 134v143q1 1 0.5 2t-0.5 2zM1080 -128v1v-1zM1143 189h88v-68h-88v68zM1143 52h88v-67h-88v67zM1158 351l-15 -18v-125l124 143h-109zM1366 476l-565 412q-8 6 -19 7q-1 0 -1 1h-6h-5q-1 0 -2 -1q-11 -1 -19 -7
l-564 -412q-15 -11 -17.5 -28.5t7.5 -32.5l34 -46q11 -15 29 -17.5t32 7.5l505 369l506 -369q15 -10 32.5 -7.5t28.5 17.5l34 46q10 15 7 32.5t-17 28.5z" />
    <glyph glyph-name="uniE607" unicode="&#xe607;" horiz-adv-x="1317" 
d="M1117 802l-83 71l-17 -9q-50 -24 -102 -34t-89 -8.5t-73.5 11t-53 16.5t-29.5 14l-15 9l-14 -9q-13 -7 -29.5 -14t-53 -16t-73.5 -11t-89 8t-102 34l-17 9l-83 -71l10 -21q54 -108 54 -180q0 -18 -12 -74q-25 -123 -25 -196q0 -205 165 -261q196 -67 245 -138l24 -35
l25 35q50 71 245 138q165 56 165 261q0 68 -25 196v1q-12 57 -12 73q0 74 55 180zM450 731q30 -58 48 -127h-74q-14 63 -46 127h72zM347 505v53h130v-277q28 10 67 36v-58q-49 -44 -143 -79v325h-54zM947 179h-436v49h64v333h74v-333h72v424h-180v54h395v-54h-133v-158h115
v-53h-115v-214h144v-48z" />
    <glyph glyph-name="uniE608" unicode="&#xe608;" 
d="M446 785q-24 -20 -49 -48q-23 -26 -50 -63t-55 -91q-28 -53 -42 -102q-15 -49 -20 -88q-7 -44 -7 -84q-11 9 -23 15t-25 11q-14 5 -30 8q-31 4 -57 -2t-43 -16q-15 -11 -25 -12.5t-10 14.5q0 38 11 75.5t26.5 71t31.5 59.5q16 27 26 39q49 68 108 109q59 42 111 65
q60 27 122 39v0zM577 785q61 -11 122 -38q51 -23 111 -65t109 -109q10 -13 25 -39q15 -25 31 -59q15 -33 27 -71t12 -76q0 -20 -11 -18q-10 2 -24 15q-13 10 -36 17q-24 6 -59 3q-16 -2 -31 -8.5t-27 -11.5q-12 -7 -25 -15q-1 40 -8 84q-7 40 -20 88q-14 49 -43 102t-55 90
q-27 38 -49 63q-25 28 -49 48v0zM511 896q21 0 33 -29q6 -17 9 -23q3 -8 11 -27q5 -15 13 -32q-10 6 -26 14q-13 7 -22 11q-11 5 -18.5 5t-18.5 -4.5t-21 -10.5q-11 -6 -25 -15q6 16 12 33q6 14 10 28q3 7 9 23q6 15 16 21q9 6 18 6v0zM486 306q8 12 19 13q10 2 19 0
q10 -4 20 -10v-326q0 -49 -20.5 -80t-78.5 -31q-30 0 -49 9q-19 10 -31 23q-11 14 -15.5 30t-4.5 29q0 19 11 27t17 9q9 0 20 -7.5t12 -21.5q1 -19 9.5 -32.5t30.5 -13.5q27 0 33.5 18.5t6.5 50.5v313h1zM511 785h6q4 -1 14 -9q9 -8 26 -27q15 -17 45 -55q28 -36 49 -72
q20 -35 34 -68q15 -33 23 -59q9 -27 14 -44q0 -1 3 -12.5t5 -18.5q6 -21 10 -41q5 -22 7 -38q2 -17 -2 -22q-12 -16 -25 -8.5t-38 22.5q-13 7 -34 14q-19 6 -44 12q-23 5 -47 7q-23 3 -44 3q-41 1 -85 -9q-44 -9 -73 -22q-28 -12 -37 -22q-10 -9 -22 -6q-14 4 -13.5 34.5
t20.5 104.5q14 49 28 86q15 36 31 64q15 28 30 50q14 22 28 41q13 19 27.5 36t28.5 31q12 12 22 21q10 7 13 7v0zM511 785zM869 56h47v-37h-68l-13 -29h81v-38h-81v-80h-56v80h-82v38h82l-14 29h-68v37h48l-57 104h73l55 -110l54 110h55z" />
    <glyph glyph-name="uniE609" unicode="&#xe609;" 
d="M512 -32q-13 0 -23 9l-96 96q-9 10 -9 23t9.5 22.5t22.5 9.5t23 -9l73 -74l73 74q10 9 23 9h224q13 0 22.5 9.5t9.5 22.5v512q0 13 -9.5 22.5t-22.5 9.5h-640q-13 0 -22.5 -9.5t-9.5 -22.5v-512q0 -13 9.5 -22.5t22.5 -9.5h96q13 0 22.5 -9.5t9.5 -22.5t-9.5 -22.5
t-22.5 -9.5h-96q-40 0 -68 28t-28 68v512q0 40 28 68t68 28h640q40 0 68 -28t28 -68v-512q0 -40 -28 -68t-68 -28h-211l-86 -87q-10 -9 -23 -9zM336 384q-20 0 -34 14t-14 34t14 34t34 14t34 -14t14 -34t-14 -34t-34 -14zM528 384q-20 0 -34 14t-14 34t14 34t34 14t34 -14
t14 -34t-14 -34t-34 -14zM720 384q-20 0 -34 14t-14 34t14 34t34 14t34 -14t14 -34t-14 -34t-34 -14z" />
    <glyph glyph-name="uniE60A" unicode="&#xe60a;" 
d="M564 276l289 288q10 10 10 24.5t-10 25t-24.5 10.5t-24.5 -11l-290 -287l-286 287q-11 11 -25 11t-24.5 -10.5t-10.5 -25t10 -24.5l287 -287l-289 -288q-10 -10 -10 -24.5t10 -25t24.5 -10.5t24.5 11l289 287l289 -290q11 -10 25.5 -10t24.5 10t10 24.5t-10 24.5z
M564 276z" />
    <glyph glyph-name="uniE60B" unicode="&#xe60b;" 
d="M512 -32q-45 0 -87 41l-319 323q-25 31 -37.5 49.5t-24.5 54t-12 76.5q0 106 75 181t181 75q81 0 147 -47q11 -7 13.5 -20t-5.5 -24t-21 -13.5t-24 5.5q-49 35 -110 35q-79 0 -135.5 -56.5t-56.5 -135.5q0 -43 13 -70t46 -69l316 -319q22 -22 41 -22q18 0 41 23l317 320
q58 62 58 137q0 79 -56.5 135.5t-135.5 56.5q-75 0 -130 -50l-134 -134q-9 -10 -22 -10t-22.5 9.5t-9.5 22.5t9 23l135 135q75 68 174 68q106 0 181 -75t75 -181q0 -100 -76 -182l-317 -320q-42 -42 -87 -42z" />
    <glyph glyph-name="uniE60C" unicode="&#xe60c;" 
d="M887 279l-353 350l-1 1h-1v1q-10 9 -23 9t-22 -10l-350 -353q-10 -9 -10 -22.5t9.5 -22.5t23 -9t22.5 9l328 331l332 -330q10 -9 23 -9t22.5 9.5t9.5 23t-10 22.5z" />
    <glyph glyph-name="uniE60D" unicode="&#xe60d;" 
d="M952 402l-384 419q-15 17 -35.5 9t-20.5 -30v-225q-112 -7 -203 -63.5t-156 -158.5q-30 -48 -52.5 -104.5t-28 -78.5t-7.5 -36q-5 -23 15 -34t37 4q5 5 19 15.5t52.5 33.5t82 42.5t109 36.5t132.5 20v-284q0 -22 20 -30q6 -2 12 -2q14 0 23 10l384 413q9 9 9 21.5
t-8 21.5z" />
    <glyph glyph-name="uniE60E" unicode="&#xe60e;" 
d="M544 -64q-6 0 -12 2q-20 8 -20 30v287q-67 -3 -132.5 -20.5t-108.5 -36.5t-82.5 -43.5t-52 -34.5t-18.5 -15q-18 -16 -38 -5t-15 34q2 14 7.5 36t28 78.5t52.5 104.5q69 109 168.5 166t222.5 57q13 0 22.5 -9.5t9.5 -22.5t-9.5 -22.5t-22.5 -9.5q-68 0 -128 -21
t-100.5 -52t-74.5 -74.5t-53 -80t-35 -75.5q182 111 391 111q13 0 22.5 -9.5t9.5 -22.5v-238l308 330l-308 335v-43q0 -13 -9.5 -22.5t-22.5 -9.5t-22.5 9.5t-9.5 22.5v125q0 21 20.5 29t35.5 -8l384 -416q8 -9 8 -21.5t-9 -21.5l-384 -413q-9 -10 -23 -10z" />
    <glyph glyph-name="uniE60F" unicode="&#xe60f;" 
d="M999 391q-54 63 -142 126q-76 55 -153 87q-98 40 -191.5 40t-190.5 -40q-77 -32 -154 -87q-87 -63 -141 -126q-12 -13 0 -26q54 -63 141 -126q77 -55 154 -87q97 -40 190.5 -40t191.5 40q77 32 153 87q88 63 142 126q11 13 0 26zM359 575q79 28 154 28t153 -28
q51 -58 51 -136q0 -84 -59.5 -144t-144.5 -60t-145 60t-60 144q0 78 51 136zM833 272q-72 -52 -145 -82q-90 -37 -175 -37t-175 37q-73 29 -145 81q-68 49 -123 107q55 58 123 107q49 35 98 60q-24 -50 -24 -106q0 -101 72 -173t174 -72t173.5 72t71.5 173q0 56 -24 106
q50 -25 99 -60q67 -49 122 -107q-54 -58 -122 -106zM615 439.5q0 -42.5 -30 -72.5t-72.5 -30t-72 30t-29.5 72.5t29.5 72.5t72 30t72.5 -30t30 -72.5z" />
    <glyph glyph-name="uniE610" unicode="&#xe610;" 
d="M383 87q-8 0 -14 6t-6 14.5t6 14.5l273 278l-273 279q-6 6 -6 14.5t6 14.5t14.5 6t14.5 -6l288 -293q5 -6 5 -14.5t-5 -14.5l-288 -293q-6 -6 -15 -6z" />
    <glyph glyph-name="uniE611" unicode="&#xe611;" 
d="M760 632q-26 63 -74 111t-111 74q-64 27 -134.5 27t-135.5 -27q-62 -26 -110 -74t-74 -111q-28 -64 -28 -134.5t28 -135.5q26 -62 74 -110t110 -74q65 -28 135.5 -28t134.5 28q63 26 111 74t74 110q27 65 27 135.5t-27 134.5zM656.5 281q-89.5 -90 -216 -90t-216.5 90
t-90 216.5t90 216t216.5 89.5t216 -89.5t89.5 -216t-89.5 -216.5zM955 -37q-6 -6 -14.5 -6t-14.5 6l-194 193q-6 6 -6 14.5t6 14.5t14.5 6t14.5 -6l194 -193q6 -6 6 -14.5t-6 -14.5z" />
    <glyph glyph-name="uniE612" unicode="&#xe612;" 
d="M1004 467l-132 22q-12 40 -33 77l78 111q10 14 -2 26l-87 86q-12 13 -26 3l-109 -79q-37 21 -78 33l-23 132q-2 7 -7.5 12t-13.5 5h-122q-7 0 -13 -5t-7 -12l-22 -132q-41 -11 -78 -32l-108 78q-14 10 -27 -2l-86 -87q-12 -12 -3 -26l77 -109q-21 -38 -33 -79l-131 -22
q-7 -1 -12 -7t-5 -13v-123q0 -7 5 -12.5t12 -7.5l131 -23q12 -41 33 -79l-78 -108q-10 -14 2 -26l87 -87q12 -12 26 -2l110 77q37 -21 78 -33l22 -131q1 -8 7 -12.5t13 -4.5h122q8 0 13.5 4.5t7.5 11.5l23 133q41 12 78 32l110 -77q14 -10 26 2l87 87q12 12 2 26l-78 109
q20 37 32 78l132 23q8 2 12.5 7.5t4.5 12.5v123q0 7 -4.5 13t-12.5 7zM980 342l-128 -23q-13 -2 -17 -15q-12 -49 -37 -91q-7 -12 1 -23l76 -105l-62 -63l-107 75q-11 8 -23 1q-42 -26 -91 -38q-13 -3 -15 -16l-23 -129h-88l-21 128q-2 13 -15 16q-49 13 -92 38q-11 7 -22 0
l-106 -75l-62 63l75 104q7 11 0 23q-26 43 -38 92q-3 13 -16 15l-127 23v88l127 21q13 2 16 15q13 49 39 92q6 11 -1 22l-74 106l62 62l105 -75q11 -8 23 -1q42 26 91 38q13 3 16 17l20 127h88l23 -128q2 -13 15 -16q49 -12 91 -38q12 -7 23 0l105 76l63 -62l-76 -107
q-7 -11 0 -22q25 -43 37 -91q4 -13 17 -15l128 -21v-88zM695 385q0 -9 -6 -15t-14.5 -6t-14.5 6t-6 15q0 59 -42 101t-101 42t-101 -42t-42 -101t42 -101t101 -42q51 0 90 32q6 5 14.5 4t14 -7.5t4.5 -15t-8 -13.5q-50 -41 -115 -41q-76 0 -129.5 54t-53.5 130t53.5 129.5
t129.5 53.5t130 -53.5t54 -129.5z" />
    <glyph glyph-name="uniE613" unicode="&#xe613;" 
d="M1007 23q-26 -38 -70 -83q-62 -66 -96 -66h-2q-75 3 -163 44q-161 76 -357.5 273t-272.5 358q-42 88 -44 162v1q-1 34 65 98q45 43 84 70q26 18 54 16q28 -3 42 -22q8 -12 67.5 -102t70.5 -107q20 -31 -5 -78q-10 -20 -53 -94q44 -63 137 -156q48 -49 91 -85.5t56 -45.5
t19 -13q7 -4 9 -12t-2 -15.5t-12.5 -9.5t-15.5 2q-60 35 -174 150q-115 115 -149 174q-6 10 -1 20q52 91 59 104q14 26 7 37q-11 16 -70.5 106t-66.5 101q-4 5 -14 5.5t-26 -8.5q-36 -25 -78 -66q-24 -23 -37 -40t-14.5 -21.5t-1.5 -6.5q2 -67 39 -146q74 -155 265.5 -347
t346.5 -265q80 -38 146 -40h1q4 0 14 7q22 13 53 46q41 43 66 79q9 15 8.5 25.5t-5.5 13.5l-102 68q-90 60 -104 69q-10 6 -31 -4q-4 -1 -7 -3q-7 -4 -15 -1.5t-12 10t-1.5 16t9.5 12.5q5 2 9 4q41 18 69 1q14 -9 104.5 -69t104.5 -69q20 -14 22.5 -42.5t-16.5 -54.5z" />
    <glyph glyph-name="uniE614" unicode="&#xe614;" 
d="M894 487h-576q-3 11 -16 52t-16 51q-25 80 14.5 155t120.5 100t155.5 -14.5t99.5 -120.5l27 -87l39 12q-23 73 -27 87q-30 97 -119.5 144.5t-186.5 17.5t-144.5 -119.5t-17.5 -186.5q10 -32 28 -91h-115q-9 0 -15 -6t-6 -14v-572q0 -8 6 -14t15 -6h734q9 0 15 6t6 14v572
q0 8 -6 14t-15 6zM874 -84h-694v530h694v-530zM588 222q0 -27 -20 -45v-57q0 -17 -12 -29t-29 -12t-29 12t-12 29v57q-20 18 -20 45q0 25 18 43t43 18t43 -18t18 -43z" />
    <glyph glyph-name="uniE615" unicode="&#xe615;" 
d="M512 832q-185 0 -316.5 -112.5t-131.5 -271.5q0 -137 100.5 -242.5t256.5 -133.5l65 -91q10 -13 26 -13t26 13l65 91q156 28 256.5 133.5t100.5 242.5q0 159 -131.5 271.5t-316.5 112.5zM288.5 384q-26.5 0 -45.5 19t-19 45t19 45t45.5 19t45 -19t18.5 -45t-18.5 -45
t-45 -19zM512.5 384q-26.5 0 -45.5 19t-19 45t19 45t45.5 19t45 -19t18.5 -45t-18.5 -45t-45 -19zM736.5 384q-26.5 0 -45.5 19t-19 45t19 45t45.5 19t45 -19t18.5 -45t-18.5 -45t-45 -19z" />
    <glyph glyph-name="uniE616" unicode="&#xe616;" 
d="M512 -32q-16 0 -26 13l-65 91q-156 28 -256.5 133.5t-100.5 242.5q0 159 131.5 271.5t316.5 112.5t316.5 -112.5t131.5 -271.5q0 -137 -100.5 -242.5t-256.5 -133.5l-65 -91q-10 -13 -26 -13zM512 768q-159 0 -271.5 -94t-112.5 -226q0 -116 89.5 -205t226.5 -110
q13 -2 21 -13l47 -65l47 65q7 11 21 13q137 21 226.5 110t89.5 205q0 132 -112.5 226t-271.5 94zM288.5 384q-26.5 0 -45.5 19t-19 45t19 45t45.5 19t45 -19t18.5 -45t-18.5 -45t-45 -19zM288 448v-32v32zM736.5 384q-26.5 0 -45.5 19t-19 45t19 45t45.5 19t45 -19t18.5 -45
t-18.5 -45t-45 -19zM736 448v-32v32zM512.5 384q-26.5 0 -45.5 19t-19 45t19 45t45.5 19t45 -19t18.5 -45t-18.5 -45t-45 -19zM512 448v-32v32z" />
    <glyph glyph-name="uniE617" unicode="&#xe617;" 
d="M512 700q79 0 151 -30q70 -30 123.5 -83.5t83.5 -123.5q30 -72 30 -151t-30 -151q-30 -70 -83.5 -123.5t-123.5 -83.5q-72 -30 -151 -30t-151 30q-70 30 -123.5 83.5t-83.5 123.5q-30 72 -30 151t30 151q30 70 83.5 123.5t123.5 83.5q72 30 151 30zM512 760
q-122 0 -225 -60t-163 -163t-60 -225t60 -225t163 -163t225 -60t225 60t163 163t60 225t-60 225t-163 163t-225 60zM727 342h-185v185q0 12 -9 21t-21 9t-21 -9t-9 -21v-185h-185q-12 0 -21 -9t-9 -21t9 -21t21 -9h185v-185q0 -12 9 -21t21 -9t21 9t9 21v185h185q12 0 21 9
t9 21t-9 21t-21 9z" />
    <glyph glyph-name="uniE618" unicode="&#xe618;" 
d="M512 832q-185 0 -316.5 -131.5t-131.5 -316.5t131.5 -316.5t316.5 -131.5t316.5 131.5t131.5 316.5t-131.5 316.5t-316.5 131.5zM566 248q10 -9 10 -22.5t-9.5 -22.5t-23 -9t-22.5 9l-159 160v0q-3 3 -6 8v1l-1 1q-8 20 7 35l160 158q10 10 23 10t22.5 -9.5t9.5 -23
t-10 -22.5l-137 -136z" />
    <glyph glyph-name="uniE619" unicode="&#xe619;" 
d="M957 557.5q-9 18.5 -29 18.5h-832q-20 0 -29 -18.5t5 -34.5l416 -485q9 -11 24 -11t24 11l416 485q14 16 5 34.5z" />
    <glyph glyph-name="uniE61A" unicode="&#xe61a;" 
d="M952 181l-416 485q-9 11 -24 11t-24 -11l-416 -485q-14 -16 -5 -34.5t29 -18.5h832q20 0 29 18.5t-5 34.5z" />
    <glyph glyph-name="uniE61C" unicode="&#xe61c;" 
d="M863 -128h-702q-27 0 -45.5 18.5t-18.5 45.5v801q0 26 18.5 43.5t45.5 17.5h223v-64h-191q-13 0 -22.5 -9.5t-9.5 -22.5v-734q0 -14 9.5 -23t22.5 -9h638q13 0 22.5 9t9.5 23v734q0 13 -9.5 22.5t-22.5 9.5h-191v64h223q27 0 45.5 -17.5t18.5 -43.5v-801
q0 -27 -18.5 -45.5t-45.5 -18.5zM416 511h319v-64h-319v64zM416 351l319 1v-65h-319v64zM735 129l-319 -1v64h319v-63zM289 511l63 1v-65h-63v64zM289 353l63 -2v-64h-63v66zM352 128l-63 2v62h63v-64zM703 700q14 0 23 -9t9 -23v-30h-446v30q0 14 9 23t23 9h95q1 46 1 97
q0 41 27.5 70t67.5 29t68.5 -30t28.5 -69l-1 -97h95zM512 800q-13 0 -22.5 -10t-9.5 -24q0 -13 9.5 -22.5t22.5 -9.5t22.5 9.5t9.5 22.5t-9.5 23.5t-22.5 10.5z" />
    <glyph glyph-name="uniE61D" unicode="&#xe61d;" 
d="M896 -128h-768q-53 0 -90.5 37.5t-37.5 90.5v768q0 53 37.5 90.5t90.5 37.5h768q53 0 90.5 -37.5t37.5 -90.5v-768q0 -53 -37.5 -90.5t-90.5 -37.5zM896 -64q26 0 45 19t19 45v256l-192 192l-273 -273l236 -239h165zM64 0q0 -26 19 -45t45 -19h512l-322 322l-254 -228
v-30zM960 768q0 26 -19 45t-45 19h-768q-26 0 -45 -19t-19 -45v-651l256 235l130 -132l318 324l192 -196v420zM256 512q-53 0 -90.5 37.5t-37.5 90.5t37.5 90.5t90.5 37.5t90.5 -37.5t37.5 -90.5t-37.5 -90.5t-90.5 -37.5zM256 704q-26 0 -45 -19t-19 -45t19 -45t45 -19
t45 19t19 45t-19 45t-45 19z" />
    <glyph glyph-name="uniE61E" unicode="&#xe61e;" horiz-adv-x="1186" 
d="M992 285q-7 -16 -24 -27t-36 -11h-533l37 -132q4 -1 5 -1h492q13 3 25 3q51 0 86.5 -36t35.5 -86.5t-35.5 -86.5t-86 -36t-86 36t-35.5 86q0 37 20 68h-340q20 -31 20 -68q0 -50 -35.5 -86t-86 -36t-86 36t-35.5 86q0 42 25 75t65 43l-165 703q-2 12 -13.5 20.5
t-24.5 8.5h-142q-10 0 -18 7.5t-8 18.5t8 18.5t18 7.5h142q31 0 56.5 -20.5t32.5 -49.5l16 -73h843q24 0 36 -19q13 -20 3 -44zM958 -76q29 0 50 20.5t21 49.5q0 28 -19.5 48.5t-46.5 22.5q-6 -3 -11 -3h-13q-22 -6 -36.5 -25t-14.5 -43q0 -29 20.5 -49.5t49.5 -20.5z
M345 -6q0 -29 20.5 -49.5t50 -20.5t50 20.5t20.5 49.5q0 24 -14.5 43t-36.5 25h-13q-6 0 -11 3q-28 -2 -47 -22.5t-19 -48.5zM297 701l90 -402h545q10 0 13 7l172 395h-820z" />
    <glyph glyph-name="uniE61F" unicode="&#xe61f;" 
d="M678 640v90q0 28 -16.5 44.5t-45.5 16.5h-208q-29 0 -45.5 -16.5t-16.5 -44.5v-90h-180v-60h60v-512q0 -41 24 -66t66 -25h392q41 0 65.5 24t24.5 67v512h60v60h-180zM407 730h210l-1 -90h-209v90zM738 38h-452v542h452v-542zM467 520h-59l-1 -392h60v392zM617 520h-60
v-392h60v392z" />
    <glyph glyph-name="uniE620" unicode="&#xe620;" 
d="M976 324q-9 -12 -26.5 -31t-66.5 -60.5t-100 -74t-125.5 -58.5t-145.5 -26t-145.5 26t-125.5 58.5t-100 74.5t-66 60.5t-28 30.5l-17 21l17 21q11 13 28 31.5t66 60.5t100 74t125.5 58t145.5 26t145.5 -26t125.5 -58t100 -74t66 -61t27 -31l18 -21zM512 551
q-52 0 -107 -16.5t-97 -39t-83.5 -53.5t-65.5 -53t-44 -44q20 -22 44 -43.5t65.5 -52.5t83.5 -54t97 -39.5t107 -16.5t107 16.5t97 39.5t83.5 54t65.5 52.5t44 43.5q-20 22 -44 44t-65.5 53t-83.5 53.5t-97 39t-107 16.5zM512 204q-56 0 -96 41.5t-40 99.5t40 99.5t96 41.5
t96 -41.5t40 -99.5t-40 -99.5t-96 -41.5zM512 421q-30 0 -51.5 -22t-21.5 -53.5t21.5 -54t51.5 -22.5t51.5 22.5t21.5 54t-21.5 53.5t-51.5 22z" />
    <glyph glyph-name="uniE621" unicode="&#xe621;" 
d="M752 272q-41 0 -75 -21.5t-52 -56.5l-258 156q17 32 17 66q0 22 -8 46l269 146q44 -48 107 -48q60 0 102 42t42 102t-42 102t-102 42t-102 -42t-42 -102q0 -18 6 -40l-272 -147q-42 43 -102 43t-102 -42t-42 -102t42 -102t102 -42q47 0 85 29l283 -172v-1q0 -60 42 -102
t102 -42t102 42t42 102t-42 102t-102 42zM752 784q33 0 56.5 -23.5t23.5 -56.5t-23.5 -56.5t-56.5 -23.5t-56.5 23.5t-23.5 56.5t23.5 56.5t56.5 23.5zM240 336q-33 0 -56.5 23.5t-23.5 56.5t23.5 56.5t56.5 23.5t56.5 -23.5t23.5 -56.5t-23.5 -56.5t-56.5 -23.5zM752 48
q-33 0 -56.5 23.5t-23.5 56.5t23.5 56.5t56.5 23.5t56.5 -23.5t23.5 -56.5t-23.5 -56.5t-56.5 -23.5z" />
    <glyph glyph-name="uniE622" unicode="&#xe622;" horiz-adv-x="1152" 
d="M576 713l85 -228l16 -42h44h221l-176 -130l-35 -26l11 -42l60 -224l-190 129l-35 24l-35 -23l-204 -130l71 221l14 43l-37 28l-176 130h221h44l16 41zM576 896l-145 -389h-415l332 -246l-125 -389l353 225l332 -225l-104 389l332 246h-415z" />
    <glyph glyph-name="uniE624" unicode="&#xe624;" horiz-adv-x="1029" 
d="M303 595v10q0 121 -1 131q-1 30 19 50t50 19h285q31 0 49.5 -18.5t18.5 -49.5v-142h9q90 0 134 -1q30 0 48.5 -18t18.5 -49v-497q0 -31 -18.5 -49.5t-48.5 -18.5h-707q-31 0 -49.5 18.5t-18.5 48.5v499q0 30 18.5 48t49.5 18q89 0 134 1q1 -1 9 0zM723 551h-420v-546h420
v546zM766 552v-546l3 -1h103q9 0 14 7q6 9 6 20v492v9q-2 18 -20 19h-106zM259 552h-102q-23 0 -23 -24v-499q0 -24 24 -24h95h3h3v547zM681 595v5v3v134q0 26 -26 26h-285q-14 0 -20 -6t-6 -21v-132q0 -2 0.5 -5t0.5 -4h336z" />
    <glyph glyph-name="uniE625" unicode="&#xe625;" 
d="M302 355l85 -84l94 -94l39 -39q8 -8 8 -18.5t-7.5 -18t-18.5 -7.5t-18 8l-39 38l-94 94l-133 133q-7 8 -7 18.5t7 17.5l266 266q7 7 18 7t18.5 -7.5t7.5 -18t-8 -17.5l-224 -225h486q11 0 19 -7.5t8 -18.5t-8 -19t-19 -8h-480zM256 402l-1 1v-2q0 1 1 1z" />
    <glyph glyph-name="uniE626" unicode="&#xe626;" 
d="M511 194l-225 222l-33 -33l259 -255l337 343l-34 32zM512 896q-30 0 -84.5 -2t-188.5 -17.5t-238 -43.5v-448q1 -12 4 -31.5t21 -70t47 -97.5q59 -98 153 -171q118 -91 286 -143q168 52 285 143q94 72 154 170q29 47 47 98t21 70t4 32v448q-104 28 -238 43.5t-188.5 17.5
t-84.5 2zM512 853q28 0 76.5 -1.5t171.5 -15t221 -36.5v-157h-938v157q98 23 221 36.5t171.5 15t76.5 1.5zM981 387q-9 -85 -67 -180q-56 -91 -143 -159q-107 -83 -259 -131q-153 49 -260 132q-87 68 -143 159q-58 95 -66 179v211h938v-211z" />
    <glyph glyph-name="uniE62A" unicode="&#xe62a;" 
d="M931 352h-580q-13 0 -22.5 9.5t-9.5 22.5t9.5 22.5t22.5 9.5h580q13 0 22.5 -9.5t9.5 -22.5t-9.5 -22.5t-22.5 -9.5zM931 610h-580q-13 0 -22.5 9t-9.5 22.5t9.5 23t22.5 9.5h580q13 0 22.5 -9.5t9.5 -23t-9.5 -22.5t-22.5 -9zM125.5 62q-26.5 0 -45.5 18.5t-19 45.5
t19 46t45.5 19t45.5 -19t19 -46t-19 -45.5t-45.5 -18.5zM125.5 320q-26.5 0 -45.5 18.5t-19 45.5t19 45.5t45.5 18.5t45.5 -18.5t19 -45.5t-19 -45.5t-45.5 -18.5zM125.5 577q-26.5 0 -45.5 19t-19 46t19 45.5t45.5 18.5t45.5 -18.5t19 -45.5t-19 -46t-45.5 -19zM351 158
h580q13 0 22.5 -9t9.5 -22.5t-9.5 -23t-22.5 -9.5h-580q-13 0 -22.5 9.5t-9.5 23t9.5 22.5t22.5 9z" />
    <glyph glyph-name="uniE62B" unicode="&#xe62b;" 
d="M384 256h384v-64h-384v64zM384 512h384v-64h-384v64zM384 384h384v-64h-384v64zM384 128h384v-64h-384v64zM128 832h512v-64h64v64v64h-64h-576v-832v-64h64h64v64h-64v768zM256 704v-832h640v832h-640zM832 -64h-512v704h512v-704z" />
    <glyph glyph-name="uniE62C" unicode="&#xe62c;" 
d="M736 896h-448q-84 0 -143.5 -57t-59.5 -138v-475q0 -13 9.5 -22.5t23 -9.5t22.5 9.5t9 22.5v475q0 54 41 92.5t98 38.5h448q57 0 98 -38.5t41 -92.5v-625q0 -75 -31.5 -107.5t-102.5 -32.5h-457q-73 0 -104 32t-31 108q0 13 -9 22.5t-22.5 9.5t-23 -9.5t-9.5 -22.5
q0 -204 199 -204h457q198 0 198 204v625q0 81 -59.5 138t-143.5 57zM784.5 719.5q-6.5 11.5 -19.5 15t-24 -2.5q-60 -33 -130 -44.5t-121.5 -7t-103 18t-70 21.5t-27.5 12q-12 7 -24.5 2.5t-18.5 -16t-2 -24t16 -18.5q15 -8 40 -18.5t93.5 -26.5t133.5 -16q133 0 245 61
q11 6 15 19t-2.5 24.5zM659 258q13 0 22.5 9.5t9.5 23t-9.5 22.5t-22.5 9h-87l88 133q7 11 4.5 24t-13.5 20.5t-24 5t-20 -13.5l-93 -140l-93 140q-8 11 -21 13.5t-24 -5t-13.5 -20.5t4.5 -24l89 -133h-84q-13 0 -22.5 -9t-9.5 -22.5t9.5 -23t22.5 -9.5h111v-54h-111
q-13 0 -22.5 -9t-9.5 -22.5t9.5 -23t22.5 -9.5h111v-82q0 -13 9.5 -22.5t23 -9.5t22.5 9.5t9 22.5v82h112q13 0 22.5 9.5t9.5 23t-9.5 22.5t-22.5 9h-112v54h112z" />
    <glyph glyph-name="uniE62D" unicode="&#xe62d;" 
d="M512 678q73 0 142 -24.5t116.5 -58t91 -78.5t65 -75t39.5 -59q-18 -29 -39.5 -59t-64.5 -75t-90.5 -78t-117 -57t-142.5 -24q-83 0 -156 24t-120.5 57t-87.5 77.5t-58.5 74.5t-32.5 58q17 29 39 59t65.5 75.5t91.5 79t117 58.5t142 25zM512 729q-69 0 -134.5 -19
t-115 -49t-93.5 -67.5t-74 -73.5t-52.5 -67.5t-32.5 -49t-10 -19.5q3 -7 8.5 -19.5t26.5 -48.5t46.5 -68.5t69 -72.5t93 -68.5t120 -48t148.5 -19.5q70 0 137 19.5t115.5 48t93.5 68t73 72t52 68.5t31 48.5t10 19.5q-4 7 -10.5 19.5t-31 48.5t-52 68.5t-72.5 72.5t-94 69
t-115.5 48.5t-136.5 19.5zM512 500q50 0 83 -33t33 -83t-33 -83t-83 -33t-83 33t-33 83t33 83t83 33zM512 551q-72 0 -119.5 -48t-47.5 -119t47.5 -119t119.5 -48t119.5 48t47.5 119t-47.5 119t-119.5 48z" />
    <glyph glyph-name="uniE62E" unicode="&#xe62e;" 
d="M919 896h-181h-1q-12 0 -21.5 -8t-11.5 -19l-1 -1q-4 -18 -8 -30t-11.5 -27t-19 -22.5t-26.5 -7.5h-271q-15 0 -26 7.5t-18.5 22.5t-11.5 26t-9 30q-1 12 -9.5 20t-21.5 9h-166q-18 0 -31.5 -12.5t-13.5 -30.5v-938q0 -18 13.5 -30.5t31.5 -12.5h814q18 0 31.5 12.5
t13.5 30.5v938q0 18 -13.5 30.5t-31.5 12.5v0zM919 -85h-814v938h154q5 -17 8.5 -28.5t12.5 -29.5t19.5 -29t28.5 -19.5t39 -8.5h271q27 0 47.5 11.5t32.5 32t17.5 36t10.5 35.5h173v-938v0zM399 853h226q9 0 16 6.5t7 15t-7 15t-16 6.5h-226q-9 0 -16 -6.5t-7 -15t7 -15
t16 -6.5v0zM204 532q0 -9 6.5 -15t16.5 -6h576q9 0 16 6t7 15t-7 15t-16 6h-576q-10 0 -16.5 -6t-6.5 -15v0zM803 349h-576q-10 0 -16.5 -6t-6.5 -15t6.5 -15t16.5 -6h576q9 0 16 6t7 15t-7 15t-16 6v0zM803 147h-576q-10 0 -16.5 -6.5t-6.5 -15t6.5 -15t16.5 -6.5h576
q9 0 16 6.5t7 15t-7 15t-16 6.5v0z" />
    <glyph glyph-name="uniE62F" unicode="&#xe62f;" 
d="M399 -1q-5 4 -11.5 12t-18 37.5t-11.5 63.5t19.5 90t62.5 117q35 -34 42 -63l6 6q5 5 16.5 21.5t19 36.5t12 54t1.5 72q4 -3 12.5 -9.5t30.5 -28.5t40 -47t36.5 -65t26.5 -82t2.5 -99t-28.5 -116q7 2 19.5 6.5t43.5 24t54.5 44t42.5 69.5t19.5 98.5t-27.5 132t-87 169.5
q-7 -62 -27 -83q-1 4 -2 12t-9 31.5t-19.5 46.5t-35.5 54.5t-54.5 59t-79 56.5t-106.5 50q2 -5 5.5 -13t11.5 -33t12 -50.5t4 -61.5t-8.5 -69.5t-30.5 -71.5t-56 -69q-20 47 -47 88q-1 -4 -2 -11t-5.5 -27t-11.5 -38t-20.5 -39.5t-30.5 -36.5q-9 -7 -16.5 -26.5t-10 -47.5
t-0.5 -60t16 -64.5t37 -61t65 -50t98 -29.5z" />
    <glyph glyph-name="uniE630" unicode="&#xe630;" 
d="M449 61q-105 0 -194 51.5t-140.5 140.5t-51.5 193.5t51.5 193.5t140.5 141t194 52t193.5 -52t140.5 -141t52 -193.5t-52 -193.5t-140.5 -140.5t-193.5 -51.5zM449 738q-120 0 -205.5 -85.5t-85.5 -206t85.5 -205.5t205.5 -85t205.5 85t85.5 205.5t-85.5 206t-205.5 85.5z
M900 -62q-25 0 -42 17l-201 201q-17 17 -17 41.5t17 41.5t41 17t41 -17l202 -202q17 -17 17 -41t-17 -41t-41 -17z" />
    <glyph glyph-name="uniE631" unicode="&#xe631;" 
d="M709 -61q-23 0 -40 16l-390 391q-2 2 -3 4l-2 3q-17 17 -17 39t16 38l392 388q17 16 40 16t39 -16q17 -16 17 -39q0 -22 -16 -38l-354 -350l358 -360q16 -16 16 -38q0 -23 -17 -39q-16 -15 -39 -15z" />
    <glyph glyph-name="uniE635" unicode="&#xe635;" 
d="M939 -30l-21 -21q-11 -11 -28 -11t-29 11l-146 152q-114 -79 -241 -79q-108 0 -200.5 55t-147 149t-54.5 204q0 108 54.5 200.5t148.5 147t204.5 54.5t204.5 -54.5t148.5 -148.5t54.5 -204q0 -143 -89 -256l146 -147q9 -7 8 -24t-13 -28v0zM480 727q-125 0 -214 -87.5
t-89 -209.5t89 -210t214 -88t214 88t89 210q0 79 -42 148t-112 109t-149 40v0zM480 727z" />
  </font>
</defs>
</svg>
